<svg width="20" height="26" viewBox="0 0 20 26" fill="none" xmlns="http://www.w3.org/2000/svg">
<path d="M8.3999 0.200012C7.51625 0.200012 6.7999 0.916357 6.7999 1.80001C6.7999 2.68367 7.51625 3.40001 8.3999 3.40001H11.5999C12.4836 3.40001 13.1999 2.68367 13.1999 1.80001C13.1999 0.916357 12.4836 0.200012 11.5999 0.200012H8.3999Z" fill="#6A3EA1"/>
<path fill-rule="evenodd" clip-rule="evenodd" d="M0.399902 5.00001C0.399902 3.2327 1.83259 1.80001 3.5999 1.80001C3.5999 4.45098 5.74894 6.60001 8.3999 6.60001H11.5999C14.2509 6.60001 16.3999 4.45098 16.3999 1.80001C18.1672 1.80001 19.5999 3.2327 19.5999 5.00001V22.6C19.5999 24.3673 18.1672 25.8 16.3999 25.8H3.5999C1.83259 25.8 0.399902 24.3673 0.399902 22.6V5.00001ZM15.9313 14.1314C16.5561 13.5065 16.5561 12.4935 15.9313 11.8686C15.3064 11.2438 14.2934 11.2438 13.6685 11.8686L8.3999 17.1373L6.33127 15.0686C5.70643 14.4438 4.69337 14.4438 4.06853 15.0686C3.44369 15.6935 3.44369 16.7065 4.06853 17.3314L7.26853 20.5314C7.89337 21.1562 8.90643 21.1562 9.53127 20.5314L15.9313 14.1314Z" fill="#6A3EA1"/>
</svg>
