<svg width="26" height="26" viewBox="0 0 26 26" fill="none" xmlns="http://www.w3.org/2000/svg">
<path d="M10.7662 2.75641C11.3347 0.414529 14.6653 0.41453 15.2338 2.75641C15.6011 4.26924 17.3343 4.98717 18.6638 4.17713C20.7217 2.92319 23.0768 5.27827 21.8229 7.33625C21.0128 8.66567 21.7308 10.3989 23.2436 10.7662C25.5855 11.3347 25.5855 14.6653 23.2436 15.2338C21.7308 15.6011 21.0128 17.3343 21.8229 18.6638C23.0768 20.7217 20.7217 23.0768 18.6638 21.8229C17.3343 21.0128 15.6011 21.7308 15.2338 23.2436C14.6653 25.5855 11.3347 25.5855 10.7662 23.2436C10.3989 21.7308 8.66568 21.0128 7.33625 21.8229C5.27827 23.0768 2.92319 20.7217 4.17713 18.6638C4.98717 17.3343 4.26924 15.6011 2.75641 15.2338C0.41453 14.6653 0.414529 11.3347 2.75641 10.7662C4.26924 10.3989 4.98717 8.66567 4.17713 7.33625C2.92319 5.27827 5.27827 2.92319 7.33625 4.17713C8.66567 4.98717 10.3989 4.26924 10.7662 2.75641Z" stroke="#827D89" stroke-width="2" stroke-linecap="round" stroke-linejoin="round"/>
<path d="M17 13C17 15.2091 15.2091 17 13 17C10.7909 17 9 15.2091 9 13C9 10.7909 10.7909 9 13 9C15.2091 9 17 10.7909 17 13Z" stroke="#827D89" stroke-width="2" stroke-linecap="round" stroke-linejoin="round"/>
</svg>
