<svg width="280" height="280" viewBox="0 0 280 280" fill="none" xmlns="http://www.w3.org/2000/svg">
<path d="M26.3667 153.813C57.96 148.913 89.9733 152.133 121.567 155.353C137.34 156.987 153.16 158.573 168.98 159.227C185.127 159.88 201.227 159.04 217.327 158.06C235.667 156.94 254.053 155.867 272.393 157.36C272.627 157.36 272.627 157.033 272.393 156.987C239.68 154.28 207.06 159.787 174.347 158.993C142.473 158.2 110.927 152.973 79.1 151.34C61.46 150.453 43.7267 150.687 26.2267 153.44C26.04 153.487 26.1333 153.813 26.3667 153.813Z" fill="white"/>
<path d="M180.553 34.7666C180.553 28.9333 176.213 24.22 170.893 24.22C165.573 24.22 161.233 28.9333 161.233 34.7666C161.233 39.5733 164.173 43.6333 168.187 44.8933V49.3266H173.413V44.94C177.52 43.7266 180.553 39.6666 180.553 34.7666Z" fill="white" stroke="#180E25" stroke-width="0.75" stroke-miterlimit="10"/>
<path d="M175 48.8134H166.787V52.9667H175V48.8134Z" fill="#DEDC52"/>
<path d="M166.74 50.12H175.047" stroke="#180E25" stroke-width="0.75" stroke-miterlimit="10"/>
<path d="M166.787 51.7533H174.813" stroke="#180E25" stroke-width="0.75" stroke-miterlimit="10"/>
<path d="M170.893 48.4399V33.6466" stroke="#180E25" stroke-width="0.75" stroke-miterlimit="10"/>
<path d="M167.487 32.9467L170.8 38.78" stroke="#180E25" stroke-width="0.75" stroke-miterlimit="10"/>
<path d="M174.3 32.8533L170.987 38.6866" stroke="#180E25" stroke-width="0.75" stroke-miterlimit="10"/>
<path d="M150.5 27.02L157.36 28.3734" stroke="#180E25" stroke-width="0.75" stroke-miterlimit="10"/>
<path d="M156.987 18.5266L160.393 22.5399" stroke="#180E25" stroke-width="0.75" stroke-miterlimit="10"/>
<path d="M165.247 13.72L166.647 19.6" stroke="#180E25" stroke-width="0.75" stroke-miterlimit="10"/>
<path d="M173.133 19.2733L174.253 14.8866" stroke="#180E25" stroke-width="0.75" stroke-miterlimit="10"/>
<path d="M177.893 23.0066L182.98 17.08" stroke="#180E25" stroke-width="0.75" stroke-miterlimit="10"/>
<path d="M181.627 27.2067L189.56 23.7067" stroke="#180E25" stroke-width="0.75" stroke-miterlimit="10"/>
<path d="M182.98 31.8267L187.787 31.5" stroke="#180E25" stroke-width="0.75" stroke-miterlimit="10"/>
<path d="M183.68 35.7933L186.713 37.1933" stroke="#180E25" stroke-width="0.75" stroke-miterlimit="10"/>
<path d="M152.227 36.8199L157.967 34.6266" stroke="#180E25" stroke-width="0.75" stroke-miterlimit="10"/>
<path d="M159.32 38.9199L156.147 42.4666" stroke="#180E25" stroke-width="0.75" stroke-miterlimit="10"/>
<path d="M88.76 176.073L41.0667 196.047L22.96 172.293L67.2934 157.267L88.76 176.073Z" fill="white" stroke="#180E25" stroke-width="0.75" stroke-miterlimit="10"/>
<path d="M136.127 245.933C136.407 244.58 137.013 242.527 138.32 240.427C139.253 238.887 140.28 237.813 141.073 237.113C141.773 237.16 145.647 237.533 147.467 241.08C148.307 242.76 148.867 245.467 148.027 246.353C147.373 247.053 146.58 246.12 144.387 246.353C142.567 246.54 142.193 247.287 140.747 247.473C139.627 247.567 138.087 247.38 136.127 245.933Z" fill="white" stroke="#180E25" stroke-width="0.75" stroke-miterlimit="10"/>
<path d="M38.0334 234.687C37.94 234.173 38.08 233.753 42 229.88C43.4934 228.387 44.1 227.827 45.0334 227.827C46.2 227.873 47.04 228.807 47.4134 229.273C49.3734 228.853 51.1934 229.18 52.0334 230.253C52.6867 231.047 52.5934 231.98 52.5467 232.167C52.1734 235.293 45.8734 238.513 41.2534 237.113C40.7867 236.973 38.3134 236.18 38.0334 234.687Z" fill="white" stroke="#180E25" stroke-width="0.75" stroke-miterlimit="10"/>
<path d="M14 196.84C13.02 194.6 14 190.867 16.1934 190.727C17.3134 190.68 17.5467 191.567 19.0867 191.707C21.5134 191.94 22.4934 189.98 24.08 190.447C25.2934 190.82 25.76 192.313 26.2734 194.087C26.7867 195.673 27.1134 196.747 26.6934 197.587C25.2 200.573 15.5867 200.433 14 196.84Z" fill="white" stroke="#180E25" stroke-width="0.75" stroke-miterlimit="10"/>
<path d="M136.22 245.84C137.06 244.207 137.807 241.78 139.113 240.38C140.467 238.933 142.053 240.007 143.22 240.8C143.64 241.08 146.533 243.973 144.713 243.74C143.873 243.647 142.987 242.433 141.96 243.04C141.633 243.227 141.727 243.32 141.54 243.6C141.447 243.693 141.493 243.88 141.447 243.973C141.027 245.14 140.467 246.12 139.067 246.12C138.833 246.12 138.833 246.447 139.067 246.493C139.907 246.493 140.607 246.213 141.167 245.56C141.447 245.233 141.447 244.953 141.68 244.627C141.727 243.787 142.333 243.413 143.407 243.46C143.92 243.647 144.34 243.88 144.76 244.207C145.927 244.533 146.3 243.973 145.74 242.853C145.227 241.873 144.34 241.127 143.453 240.52C142.753 240.053 141.167 238.887 140.233 239.027C139.487 239.12 138.88 240.147 138.553 240.753C137.573 242.34 136.827 244.067 135.987 245.7C135.8 245.84 136.08 246.027 136.22 245.84Z" fill="#180E25"/>
<path d="M139.253 246.027C138.507 245.187 138.553 243.927 139.207 243.04C139.673 242.34 140.887 241.5 141.773 241.5C141.96 241.407 142.147 241.453 142.287 241.687C142.24 242.48 141.82 242.853 140.933 242.947C140.653 242.993 140.56 242.947 140.327 243.087C139.953 243.273 139.767 243.507 139.72 243.927C139.673 244.16 140 244.253 140.047 244.02C140.093 243.647 141.027 243.367 141.307 243.32C141.447 243.273 141.587 243.273 141.68 243.227C141.913 243.133 142.1 242.947 142.287 242.76C142.613 242.293 142.753 241.687 142.52 241.173C142.473 241.127 142.427 241.08 142.38 241.08C141.167 240.987 139.58 241.873 138.927 242.9C138.227 243.927 138.18 245.373 139.02 246.307C139.16 246.447 139.393 246.213 139.253 246.027Z" fill="#180E25"/>
<path d="M47.18 229.46C47.3667 229.88 47.5533 230.207 47.8333 230.533C48.1133 230.813 48.8133 231.093 48.9533 231.327C49.6533 232.68 48.58 233.007 47.5533 233.38C47.0867 233.567 46.4333 233.8 45.92 233.893C44.8933 234.033 44.3333 233.333 43.3067 233.427C42.5133 233.52 41.9533 234.033 41.4867 234.593C41.02 235.153 40.3667 235.9 41.1133 236.367C41.3 236.46 42 236.413 42.0467 236.413C42.8867 236.413 43.4 236.507 44.24 236.553C45.1267 236.647 45.36 236.413 46.2467 235.9C46.4333 235.807 46.2467 235.48 46.06 235.62C44.9867 236.273 44.2867 236.087 43.1667 236.04C42.7467 235.993 41.3467 236.32 41.16 235.667C41.1133 235.48 41.9067 234.547 42 234.453C43.5867 233.147 44.1467 234.267 45.36 234.313C46.1067 234.313 47.0867 233.893 47.7867 233.613C48.44 233.38 49.84 233.1 49.8867 232.167C49.8867 231.887 49.7467 231.747 49.6067 231.513C48.9533 230.627 47.88 230.487 47.32 229.273C47.3667 229.087 47.0867 229.273 47.18 229.46Z" fill="#180E25"/>
<path d="M14 194.087C15.3534 192.64 16.8467 193.013 18.34 194.04C19.4134 194.787 20.44 195.627 21.3734 196.467C22.82 197.773 21.84 197.4 20.3467 197.12C18.9467 196.84 17.5934 196.373 16.24 195.813C16.1467 195.767 15.96 195.813 15.96 195.953C16.0067 197.073 16.52 197.773 17.5 198.287C17.6867 198.38 17.8734 198.1 17.6867 198.007C16.94 197.727 16.6134 197.213 16.66 196.373C16.8467 196.467 17.08 196.56 17.2667 196.607C17.8267 196.653 18.5267 197.027 19.04 197.167C20.2534 197.493 21.5134 197.68 22.7734 197.773C22.9134 197.773 23.0067 197.587 22.9134 197.493C21.28 195.86 19.3667 194.087 17.3134 192.967C15.82 192.173 14.7934 192.687 13.72 193.853C13.6267 193.993 13.86 194.227 14 194.087Z" fill="#180E25"/>
<path d="M21.84 195.02C22.0267 194.88 22.12 194.74 22.2134 194.553C22.4 194.18 22.4 193.853 22.96 194.04C23.8 194.32 24.5934 195.253 25.06 196C25.2 196.187 25.48 196 25.34 195.813C24.8267 194.973 23.8934 193.947 22.9134 193.62C22.0267 193.34 22.1667 194.367 21.6534 194.74C21.5134 194.88 21.6534 195.16 21.84 195.02Z" fill="#180E25"/>
<path d="M33.2734 174.767L42.7 186.48" stroke="#6A3EA1" stroke-miterlimit="10"/>
<path d="M40.6 168.093L53.2934 183.773" stroke="#6A3EA1" stroke-miterlimit="10"/>
<path d="M50.2134 169.773L57.0267 178.547" stroke="#6A3EA1" stroke-miterlimit="10"/>
<path d="M56.1867 164.407L65.1 175.933" stroke="#6A3EA1" stroke-miterlimit="10"/>
<path d="M181.3 239.493L151.107 235.06L175.187 213.967L202.347 217.093L181.3 239.493Z" fill="white" stroke="#180E25" stroke-width="0.75" stroke-miterlimit="10"/>
<path d="M117.367 250.227H65.1L76.16 223.953H128.427L117.367 250.227Z" fill="white" stroke="#180E25" stroke-width="0.75" stroke-miterlimit="10"/>
<path d="M164.36 232.307L175.28 233.94" stroke="#6A3EA1" stroke-miterlimit="10"/>
<path d="M166.367 227.22L185.593 229.927" stroke="#6A3EA1" stroke-miterlimit="10"/>
<path d="M167.393 223.533L189.093 226.753" stroke="#6A3EA1" stroke-miterlimit="10"/>
<path d="M174.16 219.52L192.827 222.18" stroke="#6A3EA1" stroke-miterlimit="10"/>
<path d="M121.567 229.133L115.64 242.387" stroke="#6A3EA1" stroke-miterlimit="10"/>
<path d="M116.62 226.193L106.867 245.933" stroke="#6A3EA1" stroke-miterlimit="10"/>
<path d="M108.64 227.827L102.013 241.593" stroke="#6A3EA1" stroke-miterlimit="10"/>
<path d="M100.66 227.827L92.6334 244.533" stroke="#6A3EA1" stroke-miterlimit="10"/>
<path d="M80.8734 224.793L72.1934 245.373" stroke="#6A3EA1" stroke-miterlimit="10"/>
<path d="M86.5667 227.827L80.8734 241.64" stroke="#6A3EA1" stroke-miterlimit="10"/>
<path d="M248.5 229.553L213.5 220.127L246.4 188.207L275.287 189.98L248.5 229.553Z" fill="white" stroke="#180E25" stroke-width="0.75" stroke-miterlimit="10"/>
<path d="M248.033 224.373L221.107 217.607L246.82 190.633L270.34 191.8L248.033 224.373Z" fill="white" stroke="#180E25" stroke-width="0.75" stroke-miterlimit="10"/>
<path d="M224.98 218.587L250.973 190.82" stroke="#180E25" stroke-width="0.75" stroke-miterlimit="10"/>
<path d="M230.533 219.987L256.06 191.1" stroke="#180E25" stroke-width="0.75" stroke-miterlimit="10"/>
<path d="M236.133 221.387L260.587 191.333" stroke="#180E25" stroke-width="0.75" stroke-miterlimit="10"/>
<path d="M241.687 222.787L265.02 191.52" stroke="#180E25" stroke-width="0.75" stroke-miterlimit="10"/>
<path d="M224.653 213.873L251.72 219.007" stroke="#180E25" stroke-width="0.75" stroke-miterlimit="10"/>
<path d="M232.493 210.607L254.94 214.293" stroke="#180E25" stroke-width="0.75" stroke-miterlimit="10"/>
<path d="M236.46 206.36L258.627 208.88" stroke="#180E25" stroke-width="0.75" stroke-miterlimit="10"/>
<path d="M240.707 201.787L261.94 204.073" stroke="#180E25" stroke-width="0.75" stroke-miterlimit="10"/>
<path d="M240.473 197.26L265.16 199.313" stroke="#180E25" stroke-width="0.75" stroke-miterlimit="10"/>
<path d="M243.693 193.853L267.867 195.393" stroke="#180E25" stroke-width="0.75" stroke-miterlimit="10"/>
<path d="M275.287 189.98L248.5 229.553L221.107 195.3L254.8 161.793L275.287 189.98Z" fill="white" stroke="#180E25" stroke-width="0.75" stroke-miterlimit="10"/>
<path d="M248.313 196.747C247.1 196.28 245.887 194.927 246.073 193.48C246.587 189.653 248.36 192.127 249.34 192.36C250.227 192.547 251.067 192.967 251.907 192.36C252.607 191.847 252.7 191.1 252.56 190.26C252.42 189.327 251.767 188.393 252.233 187.413C253.773 184.287 256.06 187.507 256.713 188.907C257.087 189.747 258.3 189 257.927 188.207C256.947 186.107 254.52 183.54 252.047 185.313C251.3 185.827 250.88 186.713 250.74 187.553C250.647 188.067 250.647 188.533 250.74 189.047C250.833 189.467 250.927 189.887 251.113 190.26C250.647 191.287 250.04 191.427 249.34 190.727C247.287 189.747 245.28 190.213 244.767 192.687C244.253 195.067 245.793 197.213 247.94 198.053C248.78 198.427 249.153 197.073 248.313 196.747Z" fill="#6A3EA1"/>
<path d="M213.5 220.127C213.687 220.407 214.013 220.78 214.527 221.153C215.507 221.853 216.44 221.947 217.747 222.133C218.867 222.32 219.987 222.6 221.107 222.74C224.933 223.207 231.42 225.307 237.58 226.94C240.193 227.64 243.927 228.573 248.5 229.507" fill="#180E25"/>
<path d="M221.107 195.3C220.967 195.58 220.827 195.813 220.64 196.093C239.073 218.493 248.36 229.693 248.5 229.6C248.593 229.46 239.447 218.073 221.107 195.3Z" fill="#180E25"/>
<path d="M212.333 190.82L161.607 208.367C161.233 208.507 160.767 208.46 160.44 208.227L133.7 189.42C132.813 188.813 133.047 187.413 134.12 187.133L181.767 174.907C182.047 174.813 182.373 174.86 182.607 175L212.427 188.487C213.453 188.907 213.407 190.447 212.333 190.82Z" fill="#DEDC52"/>
<path d="M210.513 188.813L161.84 205.8C161.467 205.94 161.047 205.893 160.72 205.66L135.053 187.46C134.213 186.853 134.447 185.547 135.473 185.267C139.207 183.26 145.273 180.647 153.067 180.32C155.867 180.18 158.433 180.413 160.627 180.74C163.38 179.247 166.693 177.613 170.613 176.26C174.533 174.86 178.127 174.02 181.207 173.46C181.3 173.413 181.44 173.413 181.627 173.413C181.767 173.413 181.907 173.46 182.047 173.507L210.653 186.573C211.633 186.993 211.54 188.44 210.513 188.813Z" fill="white"/>
<path d="M134.68 186.06C142.38 180.693 151.76 179.9 160.86 181.02C161.093 181.067 161.093 180.693 160.86 180.647C151.713 179.527 142.24 180.32 134.493 185.733C134.353 185.92 134.493 186.2 134.68 186.06Z" fill="#180E25"/>
<path d="M135.1 186.48C143.64 191.893 152.04 197.54 160.3 203.373C160.487 203.513 160.673 203.187 160.487 203.093C152.227 197.26 143.827 191.613 135.287 186.2C135.1 186.06 134.913 186.34 135.1 186.48Z" fill="#180E25"/>
<path d="M146.907 195.44C151.433 198.38 155.867 201.46 160.253 204.587C160.44 204.727 160.627 204.4 160.44 204.307C156.053 201.18 151.62 198.1 147.093 195.16C146.86 194.973 146.72 195.3 146.907 195.44Z" fill="#180E25"/>
<path d="M160.673 180.88C167.113 176.82 174.347 174.347 181.953 173.647C182.187 173.647 182.187 173.273 181.953 173.273C174.3 173.973 167.02 176.447 160.487 180.553C160.3 180.693 160.487 181.02 160.673 180.88Z" fill="#180E25"/>
<path d="M162.12 181.72C170.007 186.48 177.707 191.567 185.22 196.887C185.407 197.027 185.593 196.7 185.407 196.607C177.893 191.287 170.147 186.247 162.307 181.44C162.073 181.3 161.887 181.627 162.12 181.72Z" fill="#180E25"/>
<path d="M161.373 203.14C168 199.313 175.327 197.12 182.98 196.653C183.213 196.653 183.213 196.28 182.98 196.28C175.28 196.7 167.907 198.94 161.233 202.813C161 202.953 161.187 203.28 161.373 203.14Z" fill="#180E25"/>
<path d="M186.2 195.953C193.2 192.407 200.527 189.607 208.133 187.6C208.367 187.553 208.273 187.227 208.04 187.273C200.387 189.28 193.06 192.08 186.013 195.627C185.827 195.767 186.013 196.047 186.2 195.953Z" fill="#180E25"/>
<path d="M163.007 203.7C167.907 201.647 172.9 199.827 177.94 198.24C178.173 198.193 178.08 197.82 177.847 197.913C172.807 199.5 167.813 201.32 162.913 203.373C162.727 203.467 162.82 203.793 163.007 203.7Z" fill="#180E25"/>
<path d="M172.293 201.507C175.047 200.48 177.847 199.547 180.6 198.613C180.833 198.52 180.74 198.193 180.507 198.287C177.707 199.22 174.953 200.2 172.2 201.18C172.013 201.273 172.107 201.6 172.293 201.507Z" fill="#180E25"/>
<path d="M189.233 195.533C192.733 194.04 196.28 192.687 199.827 191.38C200.013 191.287 199.967 190.96 199.733 191.053C196.14 192.407 192.593 193.76 189.047 195.253C188.86 195.347 189.047 195.627 189.233 195.533Z" fill="#180E25"/>
<path d="M199.593 192.36C202.673 191.147 205.753 189.98 208.88 188.767C209.067 188.673 209.02 188.347 208.787 188.44C205.707 189.653 202.627 190.82 199.5 192.033C199.313 192.08 199.407 192.407 199.593 192.36Z" fill="#180E25"/>
<path d="M158.667 198.427C164.313 195.72 170.287 193.947 176.54 193.153C176.773 193.107 176.773 192.78 176.54 192.78C170.24 193.573 164.22 195.393 158.527 198.1C158.293 198.193 158.48 198.52 158.667 198.427Z" fill="#180E25"/>
<path d="M167.44 197.493C168.84 196.887 170.287 196.513 171.78 196.327C172.013 196.28 172.013 195.953 171.78 195.953C170.193 196.14 168.7 196.56 167.253 197.167C167.067 197.307 167.253 197.587 167.44 197.493Z" fill="#180E25"/>
<path d="M151.247 191.333C155.073 188.907 159.273 187.6 163.8 187.507C164.033 187.507 164.033 187.133 163.8 187.133C159.227 187.227 154.933 188.533 151.107 191.007C150.873 191.147 151.06 191.473 151.247 191.333Z" fill="#180E25"/>
<path d="M156.94 193.013C159.227 192.033 161.56 191.287 163.94 190.727C164.173 190.68 164.08 190.353 163.847 190.4C161.467 190.96 159.133 191.707 156.847 192.687C156.613 192.78 156.707 193.107 156.94 193.013Z" fill="#180E25"/>
<path d="M168.047 182.42C173.133 179.433 178.687 177.52 184.567 176.727C184.8 176.68 184.8 176.353 184.567 176.353C178.64 177.147 173.04 179.06 167.86 182.093C167.673 182.233 167.86 182.513 168.047 182.42Z" fill="#180E25"/>
<path d="M178.733 181.813C180.88 180.88 183.073 180.133 185.36 179.62C185.593 179.573 185.5 179.247 185.267 179.293C182.933 179.807 180.693 180.553 178.547 181.533C178.36 181.58 178.547 181.907 178.733 181.813Z" fill="#180E25"/>
<path d="M179.34 187.367C182.56 185.22 186.06 183.633 189.793 182.607C190.027 182.56 189.933 182.187 189.7 182.28C185.92 183.307 182.42 184.893 179.153 187.087C178.967 187.18 179.153 187.507 179.34 187.367Z" fill="#180E25"/>
<path d="M189.14 190.26C192.827 188.113 196.793 186.62 200.993 185.827C201.227 185.78 201.133 185.453 200.9 185.5C196.653 186.293 192.687 187.787 188.953 189.98C188.767 190.073 188.953 190.4 189.14 190.26Z" fill="#180E25"/>
<path d="M184.987 173.273C192.173 176.4 199.08 179.947 205.8 184.007C205.987 184.1 206.173 183.82 205.987 183.727C199.313 179.713 192.36 176.12 185.173 172.993C184.94 172.9 184.8 173.227 184.987 173.273Z" fill="#180E25"/>
<path d="M122.36 197.633L93.8 213.967L93.2401 212.94L121.8 196.607L122.36 197.633Z" fill="#DEDC52"/>
<path d="M94.3601 212.473C94.6401 212.567 94.8734 212.847 94.8734 213.173C94.8734 213.407 95.2467 213.407 95.2467 213.173C95.2467 212.707 94.9201 212.287 94.4534 212.147C94.2667 212.053 94.1734 212.427 94.3601 212.473Z" fill="white"/>
<path d="M121.987 196.513C122.687 196.28 123.34 196.047 124.04 195.86C124.273 195.813 124.18 195.487 123.947 195.533C123.247 195.72 122.547 195.953 121.893 196.187C121.66 196.233 121.753 196.56 121.987 196.513Z" fill="#180E25"/>
<path d="M122.92 197.493C123.433 197.073 123.9 196.607 124.32 196.093C124.46 195.907 124.227 195.673 124.087 195.86C123.667 196.373 123.2 196.793 122.687 197.26C122.5 197.4 122.733 197.633 122.92 197.493Z" fill="#180E25"/>
<path d="M123.667 195.953C123.76 196 123.807 196.093 123.9 196.14C124.04 196.233 124.227 196.14 124.18 195.953C124.18 195.907 124.133 195.813 124.133 195.767C124.133 195.813 124.087 195.86 124.087 195.953C124.32 196 124.413 195.673 124.18 195.627C124.04 195.58 123.947 195.627 123.807 195.72C123.76 195.767 123.76 195.813 123.76 195.907C123.76 195.953 123.807 196.047 123.807 196.093C123.9 196.047 123.993 196 124.087 195.907C123.993 195.86 123.947 195.767 123.853 195.72C123.76 195.533 123.48 195.767 123.667 195.953Z" fill="#180E25"/>
<path d="M63.4667 193.62C61.74 194.787 59.22 196.467 56.2333 198.567C44.2867 206.873 38.3133 211.027 38.9667 212.753C40.04 215.693 56.5133 212.053 58.8467 211.54C66.4067 209.86 72.4267 207.667 76.44 205.987C76.86 203.28 77.28 200.527 77.6533 197.82C72.94 196.373 68.2267 195.02 63.4667 193.62Z" fill="#180E25"/>
<path d="M52.36 201.553C54.04 201.6 55.1134 202.907 56 204.167C56.14 204.353 56.42 204.167 56.28 203.98C55.3 202.58 54.1334 201.227 52.3134 201.18C52.1267 201.227 52.1267 201.553 52.36 201.553Z" fill="white"/>
<path d="M56 198.987C57.4467 199.64 58.5667 200.713 59.22 202.113C59.3133 202.3 59.64 202.16 59.5 201.927C58.8 200.48 57.5867 199.313 56.14 198.66C55.9533 198.567 55.8133 198.893 56 198.987Z" fill="white"/>
<path d="M59.22 196.84C60.76 197.493 61.88 198.753 62.3467 200.387C62.3934 200.62 62.7667 200.527 62.6734 200.293C62.2067 198.613 60.9934 197.213 59.4067 196.56C59.1734 196.467 59.0334 196.793 59.22 196.84Z" fill="white"/>
<path d="M59.22 196.887C58.38 197.167 56.8867 197.447 56.0933 196.747C56.42 194.927 57.0267 194.553 57.9133 195.58C58.0533 195.72 58.24 195.813 58.38 195.953C58.8 196.327 58.8467 196.513 59.36 196.373C59.4533 196.327 59.5 196.187 59.5933 196.14C60.2467 195.627 60.9 194.46 61.9267 194.6C62.6733 194.32 62.8133 194.787 62.44 195.953C62.16 196.14 61.8333 196.327 61.5067 196.513C60.7133 196.933 59.92 197.167 59.0333 197.4C58.8 197.447 58.8933 197.773 59.1267 197.727C59.9667 197.54 64.5867 196.187 63.4667 194.647C62.16 192.733 59.8267 196.14 58.6133 195.767C57.68 195.487 57.26 194.273 56.0467 194.507C55.44 194.647 55.0667 195.067 55.02 195.673C54.9267 197.727 57.96 197.727 59.2667 197.307C59.5 197.12 59.4533 196.793 59.22 196.887Z" fill="white"/>
<path d="M93.0067 117.273C90.3 118.16 89.6934 120.587 85.54 127.727C83.3934 131.413 83.5334 130.807 81.6667 133.933C79.24 138.087 76.7667 142.987 73.08 152.087C71.6334 155.68 68.32 163.94 64.4 176.167C61.9734 183.633 60.2 189.887 58.9867 194.367C59.4534 195.02 60.2 195.953 61.4134 196.653C62.3934 197.213 63.5134 197.54 67.0134 197.587C68.5534 197.633 70.6067 197.587 73.0334 197.4C74.3867 195.02 76.44 191.567 79.0534 187.413C80.4534 185.173 82.0867 182.653 88.0134 173.787C89.9734 170.847 92.5867 166.973 95.7134 162.353C96.9267 163.24 102.48 167.02 109.667 165.807C117.507 164.5 121.52 158.247 122.733 156.333C129.36 146.02 124.693 134.073 124.087 132.673C119.887 129.22 116.2 126.887 113.633 125.393C108.547 122.5 107.753 122.873 103.6 120.073C102.527 119.327 101.173 118.393 99.12 117.74C97.72 117.32 95.2934 116.573 93.0067 117.273Z" fill="white"/>
<path d="M59.1267 194.46C63.2334 180.087 67.62 165.76 73.36 151.947C76.3 144.853 79.6134 137.9 83.44 131.227C85.26 128.007 87.22 124.833 89.32 121.753C90.3 120.307 91.4667 118.253 93.1467 117.46C95.9934 116.107 98.84 117.787 101.407 119C109.48 122.733 117.04 127.4 124.087 132.86C124.273 133 124.507 132.767 124.32 132.627C117.927 127.68 111.067 123.34 103.833 119.793C101.08 118.44 97.1134 115.78 93.8934 116.807C91.1867 117.647 89.5534 120.82 88.1067 123.013C79.1 136.733 72.52 151.947 67.1534 167.44C64.0734 176.353 61.3667 185.36 58.8 194.413C58.7534 194.6 59.08 194.693 59.1267 194.46Z" fill="#180E25"/>
<path d="M106.727 146.207C95.1067 162.82 83.8133 179.667 72.8933 196.747C72.7533 196.933 73.08 197.12 73.1733 196.933C84.0933 179.853 95.3867 163.007 107.007 146.393C107.147 146.207 106.82 146.067 106.727 146.207Z" fill="#180E25"/>
<path d="M60.3866 196.233C63.84 198.707 67.9467 198.1 71.8667 197.307C72.1 197.26 72.0067 196.933 71.7733 196.98C67.9467 197.727 63.98 198.333 60.5733 195.907C60.3866 195.767 60.2 196.093 60.3866 196.233Z" fill="#180E25"/>
<path d="M130.853 126.047C133.14 125.86 143.78 125.253 152.647 132.86C160.813 139.813 162.307 149.287 162.867 152.647C163.613 157.313 163.24 161.233 162.82 163.893C161.56 164.967 159.6 166.413 156.987 167.58C152.833 169.4 149.193 169.54 146.813 169.633C135.893 169.913 130.48 170.053 122.453 169.167C108.267 167.627 101.127 166.74 99.8667 163.24C98.7933 160.347 101.173 156.987 104.673 152.647C110.133 145.833 118.58 136.407 130.853 126.047Z" fill="white"/>
<path d="M114.567 168.747C123.807 169.54 133.14 170.1 142.427 169.96C149.613 169.867 157.033 168.933 162.913 164.5C163.1 164.36 162.913 164.08 162.727 164.22C156.473 168.98 148.54 169.68 140.933 169.68C132.113 169.68 123.34 169.213 114.567 168.467C114.38 168.373 114.38 168.7 114.567 168.747Z" fill="#180E25"/>
<path d="M137.34 63.6067C137.293 62.86 137.2 61.88 137.153 60.7133C137.013 58.4267 136.92 56.9333 137.2 55.1133C137.387 53.7133 137.667 52.92 138.273 52.4067C138.787 51.9867 139.44 51.8 139.627 51.7533C140.233 51.6133 140.747 51.66 141.4 51.7533C141.913 51.8 142.38 51.94 142.66 51.9867C143.173 49.8867 143.827 47.6933 144.34 47.74C144.9 47.7867 144.993 50.4933 144.993 50.96C145.04 52.64 144.9 55.0667 143.967 57.96C143.92 58.6133 143.873 59.5933 143.593 60.7133C143.22 62.44 142.987 63.5133 142.193 64.0733C140.467 65.4267 137.48 63.7 137.34 63.6067Z" fill="white"/>
<path d="M165.153 77.0933C164.92 76.9533 164.547 77 163.8 77.0467C161.7 77.1867 160.393 78.0733 158.06 79.2867C157.033 79.8467 155.96 80.3133 154.887 80.8733C154.607 81.0133 152.46 82.0867 148.213 84.1867C145.973 85.3067 142.287 87.1267 136.78 89.7867C137.9 85.1667 139.02 80.4533 140.14 75.6467C140.98 71.96 141.773 68.2733 142.567 64.6333C142.287 64.3533 141.867 64.0267 141.4 63.7933C139.673 62.9533 137.9 63.4667 137.387 63.6533C137.06 64.4 136.5 65.7067 135.847 67.2933C134.12 71.3533 130.76 79.1467 127.727 87.1733C125.113 94.1267 127.633 88.1533 125.767 93.8C125.113 95.8067 124.647 97.02 125.113 98.4667C125.673 100.287 127.353 101.22 127.587 101.36C128.753 102.013 129.827 101.967 131.227 101.967C136.92 101.92 130.387 102.48 137.76 102.153C145.32 101.78 149.147 101.593 150.08 101.313C157.313 99.26 161.42 93.52 162.027 92.6333C165.993 86.5667 167.207 78.26 165.153 77.0933Z" fill="#DEDC52"/>
<path d="M163.753 76.86C159.413 77.6067 155.167 80.5 151.247 82.46C146.673 84.7467 142.1 87.0334 137.48 89.2734C137.293 89.3667 137.433 89.6933 137.667 89.5533C141.96 87.4067 146.3 85.26 150.593 83.16C152.693 82.1333 154.747 81.1067 156.847 80.0334C159.087 78.9134 161.327 77.6067 163.847 77.1867C164.08 77.14 163.987 76.8134 163.753 76.86Z" fill="#180E25"/>
<path d="M137.2 89.2267C139.113 81.0601 140.98 72.8467 142.753 64.6334C142.8 64.4001 142.473 64.3067 142.427 64.5401C140.653 72.7534 138.787 80.9667 136.873 89.1334C136.78 89.3667 137.107 89.4601 137.2 89.2267Z" fill="#180E25"/>
<path d="M137.387 63.7934C138.973 63.2801 140.607 63.4668 142.053 64.3068C142.24 64.4001 142.427 64.1201 142.24 64.0268C140.7 63.1401 138.973 62.9068 137.293 63.4668C137.06 63.5134 137.153 63.8401 137.387 63.7934Z" fill="#180E25"/>
<path d="M136.593 65.0068C134.307 70.0468 132.02 75.0867 130.013 80.2201C128.007 85.3534 125.627 91.0001 124.927 96.5068C124.413 100.427 127.073 101.64 130.527 101.92C136.733 102.48 142.94 101.967 149.147 101.5C149.38 101.5 149.38 101.127 149.147 101.127C144.293 101.5 139.487 101.873 134.633 101.733C132.44 101.687 129.78 101.827 127.68 101.033C123.9 99.5868 125.58 95.0601 126.327 92.1667C128.893 82.7867 132.953 73.9201 136.92 65.1001C136.967 65.0067 136.687 64.8201 136.593 65.0068Z" fill="#180E25"/>
<path d="M142.473 64.2134C142.847 63.2334 143.173 62.2067 143.547 61.2267C143.827 60.4801 144.2 59.6401 144.247 58.8467C144.247 57.8667 143.687 57.2601 142.8 56.9334C142.24 56.7467 140.7 56.4201 140.28 57.0734C139.767 57.9134 141.26 58.2867 141.633 58.6134C141.82 58.7534 142.053 58.5201 141.867 58.3801C142.24 58.7067 141.307 57.9134 141.447 58.0534C141.307 57.9134 140.933 57.3534 141.167 57.1201C141.307 56.9801 142.053 57.1667 142.193 57.2134C143.22 57.4001 143.967 57.6801 143.827 59.2667C143.687 60.8534 142.66 62.6267 142.147 64.1201C142.1 64.3534 142.427 64.4467 142.473 64.2134Z" fill="#180E25"/>
<path d="M137.107 57.5867C137.2 56.4667 137.2 55.3 137.527 54.2267C137.667 53.62 137.947 53.0134 138.367 52.5467C138.88 51.8467 139.487 51.9867 140.187 52.9667C140.187 53.2934 140.187 53.6667 140.093 53.9934C140.047 54.2267 140.373 54.32 140.42 54.0867C140.56 53.4334 140.7 52.4067 140.233 51.8934C139.767 51.38 138.973 51.6134 138.507 51.9867C136.827 53.2 136.967 55.7667 136.78 57.6334C136.733 57.82 137.06 57.82 137.107 57.5867Z" fill="#180E25"/>
<path d="M140.327 51.8934C140.84 51.4734 141.447 51.9401 141.633 52.4534C141.82 52.9668 141.727 53.4801 141.633 53.9934C141.587 54.2267 141.913 54.3201 141.96 54.0868C142.1 53.3401 142.24 52.4534 141.68 51.8001C141.26 51.3334 140.607 51.2401 140.093 51.6134C139.907 51.8001 140.14 52.0334 140.327 51.8934Z" fill="#180E25"/>
<path d="M141.867 52.0801C142.24 51.9401 142.567 52.1267 142.753 52.4534C142.94 52.8734 142.847 53.3401 142.8 53.8067C142.753 54.0401 143.08 54.1334 143.127 53.9001C143.22 53.3401 143.36 52.6401 142.94 52.1267C142.66 51.7534 142.193 51.5667 141.773 51.7534C141.54 51.8001 141.633 52.1734 141.867 52.0801Z" fill="#180E25"/>
<path d="M142.753 52.0334C142.893 51.24 143.08 50.4467 143.36 49.7C143.593 49.0934 143.593 48.5334 144.34 48.6267C145.133 48.72 144.9 49.3267 144.9 50.0267C144.807 52.0334 144.293 54.0867 143.92 56C143.873 56.2334 144.2 56.3267 144.247 56.0934C144.62 54.2734 144.947 52.4534 145.18 50.6334C145.32 49.56 145.413 48.3934 144.62 47.5534C144.573 47.5067 144.527 47.5067 144.433 47.5067C143.08 48.0667 142.66 50.7267 142.427 51.94C142.38 52.1734 142.753 52.2667 142.753 52.0334Z" fill="#180E25"/>
<path d="M165.153 77.0935C164.08 77.9335 162.727 79.1935 161.28 80.8268C160.253 81.9935 159.46 83.1135 158.573 84.3735C156.66 87.2202 155.353 89.7868 154.047 92.4935C151.48 97.7202 149.147 102.574 146.673 109.48C146.16 110.927 145.74 112.14 145.46 112.98C144.107 113.914 142.287 115.174 140.187 116.714C138.133 118.254 136.173 119.7 133.793 121.753C132.393 122.967 130.573 124.6 128.52 126.7C130.153 126.42 132.533 126.234 135.38 126.56C140.513 127.167 144.293 129.22 146.44 130.62C149.427 132.627 151.247 134.727 152.227 135.94C153.673 137.667 155.213 139.907 156.893 143.547C160.533 151.48 162.167 160.3 162.773 164.313C164.033 163.1 165.807 161.327 167.813 158.993C172.713 153.3 175.467 148.307 178.827 142.147C182.513 135.427 184.753 130.153 185.5 128.287C186.06 126.98 188.02 122.173 190.027 115.593C191.427 111.067 192.967 105.28 194.273 98.5135C192.267 95.9002 189.28 92.4002 185.127 88.9002C184.24 88.1535 182.56 86.7068 180.367 85.1668C177.193 82.7868 172.107 79.6602 165.153 77.0935Z" fill="#DEDC52"/>
<path d="M165.107 77.2334C176.633 81.5268 186.713 88.9001 194.227 98.6068C194.367 98.7934 194.6 98.5134 194.46 98.3734C186.9 88.6201 176.727 81.2001 165.153 76.9068C165.013 76.8134 164.92 77.1868 165.107 77.2334Z" fill="#180E25"/>
<path d="M159.367 82.7868C153.533 92.2601 148.82 102.34 145.32 112.933C145.227 113.167 145.6 113.26 145.647 113.027C149.147 102.48 153.86 92.4468 159.647 82.9735C159.787 82.7401 159.46 82.5535 159.367 82.7868Z" fill="#180E25"/>
<path d="M143.593 114.053C138.227 117.74 133.14 121.8 128.38 126.28C128.193 126.42 128.473 126.7 128.613 126.513C133.373 122.08 138.413 118.02 143.733 114.333C143.967 114.24 143.78 113.913 143.593 114.053Z" fill="#180E25"/>
<path d="M128.613 126.84C138.087 125.207 147.607 129.687 153.16 137.293C158.62 144.807 161.373 154.84 162.68 163.893C162.727 164.127 163.053 164.033 163.007 163.8C161.607 154.047 158.573 143.033 152.04 135.333C146.347 128.613 137.247 124.973 128.473 126.467C128.287 126.513 128.38 126.887 128.613 126.84Z" fill="#180E25"/>
<path d="M193.293 102.107C188.813 124.833 178.64 146.16 163.707 163.847C163.567 164.033 163.8 164.267 163.94 164.08C178.873 146.3 189.14 124.927 193.62 102.153C193.667 102.013 193.34 101.92 193.293 102.107Z" fill="#180E25"/>
<path d="M163.333 93.7535C167.767 96.4135 172.34 98.7935 177.007 100.987C177.193 101.08 177.38 100.8 177.193 100.707C172.527 98.5601 167.953 96.1335 163.52 93.4735C163.333 93.3335 163.147 93.6601 163.333 93.7535Z" fill="#565510"/>
<path d="M160.347 101.5C163.38 103.6 166.6 105.327 170.007 106.68C170.193 106.773 170.287 106.447 170.1 106.353C166.693 105 163.52 103.273 160.533 101.173C160.3 101.08 160.16 101.407 160.347 101.5Z" fill="#565510"/>
<path d="M151.2 107.24C158.713 112.14 166.553 116.527 174.627 120.447C174.813 120.54 175 120.26 174.813 120.167C166.74 116.247 158.9 111.86 151.387 106.96C151.2 106.82 151.013 107.147 151.2 107.24Z" fill="#565510"/>
<path d="M74.8067 196.233C73.08 197.4 70.56 199.08 67.5734 201.18C55.6267 209.487 49.6534 213.64 50.3067 215.367C51.38 218.307 67.8534 214.667 70.1867 214.153C77.7467 212.473 83.7667 210.28 87.78 208.6C88.2 205.893 88.62 203.14 88.9934 200.433C84.2334 198.987 79.52 197.587 74.8067 196.233Z" fill="#180E25"/>
<path d="M63.6534 204.167C65.3334 204.213 66.4067 205.52 67.2934 206.78C67.4334 206.967 67.7134 206.78 67.5734 206.593C66.5934 205.193 65.4267 203.84 63.6067 203.793C63.42 203.793 63.42 204.167 63.6534 204.167Z" fill="white"/>
<path d="M67.2934 201.6C68.7401 202.253 69.8601 203.327 70.5134 204.727C70.6067 204.913 70.9334 204.773 70.7934 204.54C70.0934 203.093 68.8801 201.927 67.4334 201.273C67.2934 201.18 67.1067 201.507 67.2934 201.6Z" fill="white"/>
<path d="M70.5134 199.453C72.0534 200.107 73.1734 201.367 73.64 203C73.6867 203.233 74.06 203.14 73.9667 202.907C73.5 201.227 72.2867 199.827 70.7 199.173C70.5134 199.08 70.3267 199.36 70.5134 199.453Z" fill="white"/>
<path d="M70.5133 199.453C69.6733 199.733 68.18 200.013 67.3867 199.313C67.7133 197.493 68.32 197.12 69.2067 198.147C69.3467 198.287 69.5333 198.38 69.6733 198.52C70.0933 198.893 70.14 199.08 70.6533 198.94C70.7467 198.893 70.7933 198.753 70.8867 198.707C71.54 198.193 72.1933 197.027 73.22 197.167C73.9667 196.887 74.1067 197.353 73.7333 198.52C73.4533 198.707 73.1267 198.893 72.8 199.08C72.0067 199.5 71.2133 199.733 70.3267 199.967C70.0933 200.013 70.1867 200.34 70.42 200.293C71.26 200.107 75.88 198.753 74.76 197.213C73.4533 195.3 71.12 198.707 69.9067 198.333C68.9733 198.053 68.5533 196.84 67.34 197.073C66.7333 197.213 66.36 197.633 66.3133 198.24C66.22 200.293 69.2533 200.293 70.56 199.873C70.84 199.733 70.7467 199.407 70.5133 199.453Z" fill="white"/>
<path d="M73.4534 197.587C76.1134 188.86 78.7734 181.673 80.92 176.4C83.6267 169.68 86.0067 164.593 90.8134 154.42C93.94 147.793 96.46 142.8 99.4 137.34C106.353 124.46 103.133 132.673 109.013 122.687C109.853 121.24 111.393 118.58 114.473 117.087C116.993 115.873 119.467 115.967 120.353 116.013C121.94 116.107 123.48 116.48 127.447 118.393C130.06 119.653 132.58 120.867 135.38 122.733C143.22 127.913 149.66 135.707 151.573 138.04C152.507 140.233 153.953 144.76 152.227 149.24C149.473 156.427 139.58 161 128.333 158.62C125.813 161.56 121.94 165.993 117.087 171.407C112 177.053 109.107 180.04 102.853 186.807C99.4934 190.447 94.64 195.72 88.76 202.207C87.7334 202.3 86.2867 202.393 84.56 202.347C81.62 202.253 79.66 202.207 77.56 201.18C76.58 200.667 74.9467 199.687 73.4534 197.587Z" fill="white"/>
<path d="M73.78 196.98C79.24 180.18 86.0534 163.847 94.1734 148.12C98.1867 140.373 102.293 132.58 107.24 125.393C109.807 121.66 113.26 116.387 118.253 116.06C122.5 115.78 126.933 118.207 130.573 120.12C138.787 124.46 145.927 130.667 151.433 138.133C151.573 138.32 151.853 138.133 151.713 137.947C146.907 131.413 140.933 125.86 133.98 121.66C128.333 118.253 119.327 112.747 113.167 117.787C109.853 120.493 107.333 124.413 105.093 128.007C102.527 132.067 100.147 136.22 97.86 140.42C93.1 149.053 88.76 157.873 84.7934 166.88C80.5 176.68 76.72 186.713 73.4067 196.887C73.36 197.12 73.6867 197.213 73.78 196.98Z" fill="#180E25"/>
<path d="M88.9 202.3C102.107 187.833 115.36 173.367 128.567 158.9C128.707 158.713 128.473 158.48 128.333 158.667C115.127 173.133 101.873 187.6 88.6667 202.067C88.5267 202.207 88.76 202.487 88.9 202.3Z" fill="#180E25"/>
<path d="M73.8734 198.007C76.9067 202.813 82.74 202.953 87.78 202.067C88.0134 202.02 87.92 201.693 87.6867 201.74C82.7867 202.58 77.14 202.487 74.1534 197.82C74.06 197.633 73.7334 197.773 73.8734 198.007Z" fill="#180E25"/>
<path d="M51.9867 212.94C55.16 209.907 58.6134 207.107 62.2533 204.633C62.44 204.493 62.2534 204.213 62.0667 204.353C58.38 206.827 54.9267 209.627 51.7534 212.707C51.5667 212.847 51.8 213.08 51.9867 212.94Z" fill="white"/>
<path d="M172.9 72.8C172.573 73.5933 172.2 74.5733 171.873 75.6933C171.36 77.3266 171.127 78.1666 171.173 79.2866C171.173 79.8 171.22 80.9666 171.827 82.2733C172.667 84.14 174.16 85.0733 174.907 85.4933C175.793 86.0533 176.633 86.3333 177.147 86.4733C177.193 86.8 177.193 87.08 177.24 87.4067C176.773 87.1266 176.167 87.1266 175.7 87.4067C175.28 87.6866 175 88.2 175.093 88.6666C175.233 89.4133 176.307 89.6933 176.867 89.8333C178.22 90.2066 179.387 89.8333 180.087 89.6C180.833 89.3666 181.347 89.18 181.907 88.7133C183.073 87.6867 183.12 86.1 183.12 85.6333C184.847 84.7466 186.013 83.7666 186.667 83.0666C187.32 82.3666 187.6 81.9466 187.74 81.62C188.347 80.4533 188.3 79.3333 188.3 78.82C188.207 76.58 186.9 74.9466 186.247 74.2C185.5 73.2666 183.12 70.42 179.2 70.3266C175.747 70.2333 173.46 72.24 172.9 72.8Z" fill="white"/>
<path d="M199.967 72.5667C200.013 75.5067 198.753 79.94 195.44 81.2C193.247 82.04 191.147 81.1067 188.86 80.1267C187.507 79.52 181.113 76.7667 180.32 71.4C180.087 69.6734 180.367 67.1534 181.673 66.5467C183.12 65.8467 184.8 68.04 186.48 67.2467C187.6 66.7334 187.32 65.52 188.487 64.4934C190.12 62.9534 193.153 63.1867 195.113 63.98C198.66 65.4734 199.92 69.72 199.967 72.5667Z" fill="#180E25"/>
<path d="M172.48 74.3867C172.667 74.1067 174.16 72.1933 176.073 71.82C176.587 71.7267 177.613 71.54 178.453 72.1C178.733 72.2867 179.2 72.7533 179.76 75.7867C180.133 77.8867 179.993 78.12 180.367 79.3333C180.74 80.5 181.113 81.5733 182.187 82.2267C182.327 82.32 183.26 82.8333 184.38 82.6467C184.893 82.5533 185.173 82.3667 186.153 81.8067C186.947 81.3867 187.6 81.06 188.067 80.8267C188.3 80.2667 188.58 79.4733 188.72 78.4933C188.813 77.9333 188.86 77 188.72 75.88C188.627 75.4133 188.3 73.4067 186.947 71.7733C186.2 70.8867 184.94 69.86 181.627 69.0667C177.8 68.1333 170.613 67.3867 169.727 69.72C169.447 70.5133 169.727 71.82 172.48 74.3867Z" fill="#180E25"/>
<path d="M172.293 74.2934C170.567 77.5601 170.24 81.5734 173.04 84.3734C175.467 86.8001 180.133 87.8267 183.073 85.8201C183.26 85.6801 183.073 85.4001 182.887 85.5401C180.087 87.4067 175.513 86.5201 173.273 84.1401C170.613 81.4334 170.94 77.6534 172.573 74.4801C172.713 74.2467 172.433 74.1067 172.293 74.2934Z" fill="#180E25"/>
<path d="M176.913 86.4733C176.96 86.9867 177.007 87.4533 177.1 87.9667C177.147 88.2 177.473 88.2 177.473 87.9667C177.427 87.4533 177.38 86.9867 177.287 86.4733C177.24 86.24 176.867 86.24 176.913 86.4733Z" fill="#180E25"/>
<path d="M175.513 87.2667C174.44 88.34 174.86 89.3201 176.26 89.8801C177.847 90.4867 180.133 89.9734 181.533 89.1334C181.72 88.9934 181.533 88.7134 181.347 88.8534C180.413 89.4134 179.387 89.6467 178.313 89.7401C177.8 89.7867 177.24 89.8334 176.773 89.6934C175.98 89.5067 174.58 88.7601 175.793 87.5467C175.933 87.36 175.7 87.1267 175.513 87.2667Z" fill="#180E25"/>
<path d="M174.253 76.3934C173.32 77.8867 172.947 79.6134 173.227 81.34C173.273 81.5734 173.6 81.48 173.553 81.2467C173.273 79.5667 173.6 77.98 174.533 76.58C174.72 76.3934 174.393 76.2067 174.253 76.3934Z" fill="#180E25"/>
<path d="M174.207 71.7267C177.613 69.1134 183.073 67.9001 186.34 71.4001C189.28 74.5267 189.233 79.1467 186.853 82.5534C186.713 82.7401 187.04 82.9267 187.133 82.7401C189.747 79.0067 189.56 73.8734 186.107 70.7001C182.653 67.5734 177.287 68.9734 173.973 71.5401C173.787 71.6334 174.02 71.8667 174.207 71.7267Z" fill="#180E25"/>
<path d="M173.6 72.8C174.16 72.52 174.72 72.1467 175.327 71.96C175.747 71.8667 176.167 71.7734 176.587 71.7267C177.473 72.4267 178.36 73.1267 179.247 73.8267C179.667 74.62 179.527 75.88 179.667 76.7667C179.9 78.3534 180.087 80.4067 181.253 81.6667C183.493 84.1867 185.64 81.9934 187.833 80.9667C188.02 80.8734 187.88 80.5467 187.647 80.6867C186.853 81.06 186.153 81.9 185.36 82.18C182.84 83.1134 181.253 81.5734 180.553 79.3334C179.947 77.3734 180.273 74.9934 179.387 73.1267C178.173 70.6067 175.373 71.54 173.413 72.5667C173.227 72.6134 173.367 72.94 173.6 72.8Z" fill="#180E25"/>
<path d="M173.249 77.0773C173.398 76.7773 173.369 76.4597 173.185 76.3678C173 76.276 172.73 76.4447 172.58 76.7447C172.431 77.0447 172.46 77.3623 172.644 77.4541C172.829 77.546 173.1 77.3772 173.249 77.0773Z" fill="#180E25"/>
<path d="M177.115 78.2742C177.264 77.9742 177.236 77.6566 177.051 77.5647C176.866 77.4729 176.596 77.6416 176.447 77.9416C176.297 78.2416 176.326 78.5592 176.511 78.651C176.695 78.7429 176.966 78.5741 177.115 78.2742Z" fill="#180E25"/>
<path d="M173.04 74.3867C173.46 73.92 174.207 74.0133 174.393 74.6667C174.44 74.9 174.813 74.8067 174.72 74.5733C174.44 73.6867 173.367 73.4533 172.76 74.1533C172.62 74.2933 172.853 74.5267 173.04 74.3867Z" fill="#180E25"/>
<path d="M176.96 75.32C177.753 74.8534 178.407 75.7867 178.5 76.4867C178.547 76.72 178.873 76.72 178.873 76.4867C178.827 75.9734 178.64 75.46 178.173 75.1334C177.753 74.8534 177.24 74.8067 176.82 75.04C176.587 75.1334 176.773 75.46 176.96 75.32Z" fill="#180E25"/>
<path d="M184.94 70.1866C186.527 69.8133 188.113 70.4666 189 71.7266C189.98 73.1266 189.887 75.0866 188.767 76.44C188.813 76.2533 189.513 73.7333 187.88 71.7733C186.807 70.56 185.36 70.28 184.94 70.1866Z" fill="white"/>
<path d="M182.467 164.173C182.653 165.06 182.793 165.76 182.887 166.273C183.073 167.44 183.073 167.767 183.307 168.28C183.447 168.56 183.773 169.4 184.52 169.96C185.08 170.38 185.64 170.473 187.227 170.567C189.56 170.707 190.727 170.8 192.22 170.707C192.967 170.66 193.667 170.567 195.067 170.38C198.1 170.007 199.64 169.82 200.573 169.447C202.347 168.793 204.773 167.347 204.54 166.32C204.493 166.087 204.307 165.62 201.32 164.92C198.193 164.173 195.72 164.08 195.58 164.08C192.127 163.94 191.193 164.407 187.693 164.407C185.407 164.453 183.587 164.313 182.467 164.173Z" fill="white"/>
<path d="M183.307 86.52C182.42 88.1534 182.14 89.6 181.953 90.4867C181.487 92.8667 181.767 94.3134 181.86 96.46C181.953 99.3534 181.58 100.847 181.207 103.833C180.32 110.973 180.32 119.093 180.32 126.84C180.32 133.56 180.553 138.647 180.6 140.187C180.88 146.533 181.487 154.747 182.793 164.36C182.98 164.547 183.68 165.107 184.753 165.107C185.733 165.153 186.433 164.687 186.62 164.547C186.76 163.847 186.993 162.82 187.273 161.513C188.393 156.333 189.14 152.927 189.7 150.313C191.427 142.473 192.313 138.04 193.107 133.42C193.433 131.46 193.9 128.473 193.573 124.6C193.387 122.547 193.06 120.913 192.827 119.747C192.967 118.907 193.153 117.647 193.433 116.153C193.807 113.913 195.673 104.953 195.953 103.413C198.24 92.2134 196.84 96.6934 197.913 92.0267C198.193 90.86 198.8 88.34 198.053 85.3534C197.447 82.9267 196.42 81.9467 196.14 81.7134C194.647 80.4534 192.827 80.4534 192.08 80.4534C189.513 80.4534 187.693 81.8067 186.667 82.5534C186.2 82.88 184.567 84.1867 183.307 86.52Z" fill="#DEDC52"/>
<path d="M182.467 88.9934C183.727 84.7934 187.32 80.92 191.893 80.64C198.38 80.22 198.287 87.22 197.773 91.7934C196.793 100.66 194.553 109.433 192.827 118.16C192.78 118.393 193.107 118.487 193.153 118.253C194.367 112.187 195.58 106.12 196.747 100.053C197.26 97.44 197.727 94.8267 198.007 92.2134C198.333 89.6 198.707 86.7067 197.82 84.1867C196.56 80.6867 193.107 79.6133 189.747 80.6867C185.92 81.9 183.167 85.1667 182.047 88.9C182.093 89.1334 182.42 89.2267 182.467 88.9934Z" fill="#180E25"/>
<path d="M181.673 96.46C179.48 118.673 179.667 141.073 182.327 163.24C182.373 163.473 182.7 163.473 182.7 163.24C180.04 141.073 179.807 118.673 182.047 96.46C182.047 96.2267 181.72 96.2267 181.673 96.46Z" fill="#180E25"/>
<path d="M192.873 120.307C194.227 127.773 192.873 135.24 191.287 142.567C189.793 149.52 188.253 156.52 186.713 163.473C186.667 163.707 186.993 163.8 187.04 163.567C188.673 156.007 190.4 148.493 191.987 140.933C193.433 134.12 194.46 127.167 193.2 120.26C193.153 119.98 192.827 120.073 192.873 120.307Z" fill="#180E25"/>
<path d="M182.7 164.5C183.867 165.48 185.5 165.573 186.76 164.733C186.947 164.593 186.76 164.313 186.573 164.453C185.453 165.2 184.007 165.153 182.933 164.267C182.793 164.127 182.513 164.36 182.7 164.5Z" fill="#180E25"/>
<path d="M182.7 166.367C183.073 167.487 182.933 168.933 183.82 169.773C184.66 170.567 186.2 170.66 187.32 170.8C191.567 171.36 195.813 170.52 199.967 169.727C200.2 169.68 200.107 169.353 199.873 169.4C196.747 170.007 193.573 170.613 190.353 170.613C188.813 170.613 187.133 170.613 185.687 170.147C183.213 169.353 183.68 168.093 183.073 166.273C182.98 166.04 182.607 166.133 182.7 166.367Z" fill="#180E25"/>
<path d="M193.9 168.047C195.953 167.767 198.007 167.533 199.827 168.747C200.013 168.887 200.2 168.56 200.013 168.467C198.147 167.253 196 167.44 193.9 167.72C193.713 167.72 193.713 168.093 193.9 168.047Z" fill="#180E25"/>
<path d="M187.693 164.64C190.4 164.5 193.107 164.313 195.813 164.313C198.987 164.267 201.6 165.2 204.447 166.553C204.633 166.647 204.82 166.367 204.633 166.273C202.3 165.153 199.967 164.127 197.353 163.987C194.18 163.8 190.913 164.173 187.74 164.313C187.46 164.267 187.46 164.64 187.693 164.64Z" fill="#180E25"/>
<path d="M195.533 166.367C198.24 166.273 200.947 166.6 203.56 167.347C203.793 167.393 203.887 167.067 203.653 167.02C200.993 166.273 198.287 165.947 195.533 166.04C195.347 166.04 195.347 166.367 195.533 166.367Z" fill="#180E25"/>
<path d="M196.933 165.107C199.127 165.247 201.227 165.573 203.327 166.18C203.56 166.227 203.653 165.9 203.42 165.853C201.273 165.247 199.127 164.873 196.933 164.78C196.747 164.78 196.747 165.107 196.933 165.107Z" fill="#180E25"/>
</svg>
