<svg width="160" height="160" viewBox="0 0 160 160" fill="none" xmlns="http://www.w3.org/2000/svg">
<path d="M20.8804 150.107C27.2537 146.72 34.6404 147.653 41.4937 148.667C48.6137 149.733 55.7604 150.587 62.9604 151.12C70.4271 151.68 78.0537 152.133 85.5471 151.707C92.8004 151.307 99.7337 148.987 106.88 147.84C115.254 146.507 123.76 146.4 132.16 147.493C132.294 147.52 132.294 147.307 132.16 147.28C124.694 146.32 117.094 146.267 109.627 147.227C102.134 148.187 94.9071 150.693 87.3871 151.36C79.8404 152.027 72.0804 151.52 64.5337 151.013C56.8271 150.48 49.2004 149.573 41.5737 148.453C34.6671 147.44 27.2271 146.507 20.8271 149.92C20.6671 150 20.7737 150.16 20.8804 150.107Z" fill="#180E25"/>
<path d="M119.839 150.986C132.266 147.786 144.933 154.56 157.333 151.146C157.466 151.12 157.413 150.906 157.279 150.96C144.879 154.373 132.213 147.6 119.786 150.8C119.653 150.826 119.706 151.013 119.839 150.986Z" fill="#180E25"/>
<path d="M12.826 153.6C26.586 150.4 40.186 158.24 53.9726 155.36C54.106 155.333 54.0526 155.147 53.9193 155.173C40.1326 158.08 26.5593 150.24 12.7726 153.413C12.666 153.413 12.7193 153.627 12.826 153.6Z" fill="#180E25"/>
<path d="M122.239 155.52C121.866 154.134 121.599 152.614 121.493 151.014C120.773 140.747 126.853 132.747 129.599 129.547C129.813 131.28 129.893 133.174 129.786 135.2C129.306 144.534 125.119 151.6 122.239 155.52Z" fill="#F7F6D4"/>
<path d="M122.239 155.52C120.639 154 118.666 151.734 117.119 148.614C113.599 141.627 114.399 134.907 114.879 132.214C116.266 134.347 117.706 136.96 118.933 140.054C121.359 146.107 122.079 151.574 122.239 155.52Z" fill="#F7F6D4"/>
<path d="M49.0929 131.52C48.7996 133.654 48.6929 136.454 49.3063 139.627C50.8263 147.494 55.7596 152.427 57.8663 154.32C58.0263 152.24 57.9729 149.68 57.4396 146.854C55.9196 139.094 51.4396 133.894 49.0929 131.52Z" fill="#F7F6D4"/>
<path d="M57.8662 154.32C56.3195 153.814 56.9062 146.32 58.9595 140.293C60.3462 136.187 62.3195 133.094 63.7862 131.094C64.6395 134.32 65.8928 140.933 62.9062 147.76C61.6262 150.64 59.0928 154.72 57.8662 154.32Z" fill="#F7F6D4"/>
<path d="M43.4393 136.854C43.946 136.854 43.946 136.054 43.4393 136.054C42.906 136.054 42.906 136.854 43.4393 136.854Z" fill="#EFEEF0"/>
<path d="M51.0927 136.8C52.5594 142.587 54.6127 148.214 57.226 153.574C57.2794 153.68 57.466 153.6 57.386 153.467C54.7727 148.107 52.7194 142.507 51.2794 136.747C51.2527 136.64 51.066 136.694 51.0927 136.8Z" fill="#565510"/>
<path d="M58.0792 153.467C59.7059 149.014 61.3592 144.56 63.0659 140.134C63.1192 140 62.9059 139.974 62.8792 140.08C61.1725 144.507 59.4925 148.96 57.8925 153.414C57.8392 153.547 58.0259 153.6 58.0792 153.467Z" fill="#565510"/>
<path d="M115.867 138.027C117.12 143.573 119.04 148.907 121.547 154C121.6 154.107 121.787 154.027 121.707 153.893C119.2 148.827 117.307 143.467 116.054 137.947C116.054 137.867 115.84 137.92 115.867 138.027Z" fill="#565510"/>
<path d="M125.733 140.187C125.066 145.227 123.893 150.16 122.266 154.96C122.213 155.093 122.426 155.147 122.453 155.013C124.079 150.213 125.226 145.28 125.919 140.24C125.919 140.133 125.733 140.08 125.733 140.187Z" fill="#565510"/>
<path d="M104.933 29.7335C104.56 29.5468 102.266 28.4001 102.373 27.0668C102.48 25.6001 105.546 24.7468 106.826 24.4001C108.24 24.0001 110.053 23.8401 110.24 23.8401C110.586 23.8135 110.72 23.8135 110.8 23.8135C111.306 23.8401 112.666 23.8935 113.813 24.8535C114.56 25.4935 114.906 26.2668 115.12 26.7468C115.52 27.6268 115.626 28.4268 115.653 28.9335C114 29.2801 112.053 29.6001 109.893 29.7335C108.053 29.8668 106.4 29.8401 104.933 29.7335Z" fill="#180E25"/>
<path d="M117.733 27.0402C116.32 29.5469 113.333 30.9602 110.56 30.4802C107.52 29.9735 105.146 27.3602 104.986 24.9069C104.96 24.5069 104.88 23.1469 105.706 22.4268C106.693 21.5468 107.946 22.5335 109.573 21.7868C111.173 21.0668 110.853 19.7068 112.24 19.0402C113.92 18.2402 116.72 19.0935 118 21.1202C119.653 23.6802 117.973 26.6402 117.733 27.0402Z" fill="#180E25"/>
<path d="M104.827 29.5468C104.827 29.8668 104.88 30.2934 104.96 30.8001C105.067 31.3068 105.2 32.1068 105.653 32.8534C106.507 34.3201 108.053 34.8534 108.453 34.9868C109.627 35.3601 110.613 35.1734 111.067 35.0934C112.587 34.8268 113.573 34.0268 113.867 33.7601C114.08 33.5734 114.747 32.9868 115.227 32.0001C115.467 31.5201 115.787 30.8801 115.787 30.0001C115.787 29.5734 115.707 29.2001 115.627 28.9601C115.413 29.0401 115.04 29.1201 114.613 29.0134C114.213 28.9334 113.947 28.7201 113.787 28.5868C112.613 27.6534 112.48 26.7468 111.493 26.1868C111.333 26.0801 110.507 25.6268 109.493 25.7868C108.56 25.9201 107.947 26.5068 107.733 26.7201C107.44 26.9868 107.147 27.4668 106.533 28.4268C106.213 28.9068 105.973 29.3068 105.493 29.4668C105.253 29.5734 105.013 29.5734 104.827 29.5468Z" fill="white"/>
<path d="M115.707 30.0002C115.333 32.9602 112.827 35.2002 109.787 35.0935C107.253 34.9869 105.44 33.2269 105.067 30.7735C105.04 30.6402 104.853 30.6935 104.88 30.8269C105.28 33.5469 107.44 35.3869 110.213 35.3069C113.227 35.2002 115.52 32.9602 115.893 30.0269C115.92 29.8669 115.707 29.8669 115.707 30.0002Z" fill="#180E25"/>
<path d="M104.933 29.5468C105.28 26.6402 107.333 24.2402 110.347 23.9468C113.387 23.6802 115.333 26.0802 115.547 28.9602C115.547 29.0935 115.76 29.0935 115.76 28.9602C115.547 25.9735 113.52 23.4935 110.373 23.7602C107.253 24.0268 105.12 26.5335 104.773 29.5468C104.72 29.6802 104.933 29.6802 104.933 29.5468Z" fill="#180E25"/>
<path d="M115.68 29.0401C115.68 29.0401 115.707 29.0401 115.68 29.0401C115.813 28.9868 115.707 28.8001 115.6 28.8535C115.6 28.8535 115.6 28.8535 115.573 28.8535C115.467 28.9335 115.573 29.0935 115.68 29.0401Z" fill="#180E25"/>
<path d="M104.827 29.627C105.52 29.8403 105.947 29.307 106.347 28.8003C107.333 27.5737 108.027 25.8937 109.867 25.8403C112.427 25.7603 113.093 29.8137 115.707 29.0403C115.84 29.0137 115.787 28.8003 115.653 28.8537C113.813 29.387 113.067 27.307 111.947 26.3737C111.307 25.8403 110.507 25.6003 109.68 25.6803C108.933 25.7603 108.293 26.0803 107.76 26.6137C107.093 27.2803 105.973 29.787 104.907 29.467C104.747 29.4137 104.693 29.6003 104.827 29.627Z" fill="#180E25"/>
<path d="M109.68 27.7603C109.546 28.5336 108.96 31.2003 110.133 31.4936C110.266 31.5203 110.32 31.3336 110.186 31.3069C109.253 31.0669 109.786 28.4269 109.866 27.8136C109.893 27.7069 109.706 27.6269 109.68 27.7603Z" fill="#180E25"/>
<path d="M110.213 32.4003C111.093 32.5869 112.053 31.7603 112.213 30.9069C112.24 30.7736 112.053 30.7203 112.026 30.8536C111.893 31.5736 111.04 32.3469 110.266 32.1869C110.133 32.1869 110.08 32.3736 110.213 32.4003Z" fill="#180E25"/>
<path d="M107.893 29.4403C108.04 29.4403 108.159 29.2731 108.159 29.0669C108.159 28.8608 108.04 28.6936 107.893 28.6936C107.745 28.6936 107.626 28.8608 107.626 29.0669C107.626 29.2731 107.745 29.4403 107.893 29.4403Z" fill="#180E25"/>
<path d="M111.867 29.3067C112.014 29.3067 112.133 29.1396 112.133 28.9334C112.133 28.7272 112.014 28.5601 111.867 28.5601C111.719 28.5601 111.6 28.7272 111.6 28.9334C111.6 29.1396 111.719 29.3067 111.867 29.3067Z" fill="#180E25"/>
<path d="M107.627 28.1335C107.707 28.0002 107.813 27.8935 107.947 27.8135C108.16 27.6802 108.293 27.7335 108.507 27.8669C108.613 27.9469 108.72 27.7602 108.613 27.7069C108.427 27.5735 108.213 27.4935 107.973 27.6002C107.76 27.7069 107.573 27.8669 107.44 28.0535C107.387 28.1335 107.547 28.2402 107.627 28.1335Z" fill="#180E25"/>
<path d="M111.414 27.7334C111.601 27.5734 111.841 27.44 112.081 27.5467C112.267 27.6267 112.347 27.84 112.454 28.0267C112.507 28.1334 112.694 28.0534 112.614 27.92C112.481 27.68 112.347 27.3867 112.054 27.3334C111.761 27.2534 111.494 27.4134 111.281 27.6C111.174 27.68 111.334 27.84 111.414 27.7334Z" fill="#180E25"/>
<path d="M109.093 23.947C109.28 23.707 109.947 23.0136 111.04 22.8536C112.827 22.587 114.053 24.0803 114.107 24.1603C113.653 23.9203 112.693 23.467 111.44 23.4403C110.373 23.4403 109.547 23.7336 109.093 23.947Z" fill="white"/>
<path d="M61.8925 27.5735C62.5858 26.9069 63.2525 26.5069 63.7325 26.2935C64.3191 26.0002 64.8791 25.7335 65.6525 25.7869C66.1858 25.8135 66.6391 25.9735 66.9058 26.1069C67.2525 28.2935 67.6791 30.5602 68.1325 32.8535C69.0125 37.1735 69.9991 41.2535 71.0658 45.0935C71.9458 44.6402 73.1725 44.0002 74.6658 43.2535C79.0125 41.0669 82.9058 39.2269 86.1591 37.7335C87.7591 36.9869 89.8391 36.0802 92.2924 35.0135C93.7591 37.0135 94.0791 38.6935 94.1591 39.7335C94.6658 46.9069 85.0391 53.6269 77.8391 54.8002C75.5725 55.1735 73.0125 55.0669 72.7991 55.0669C68.5058 54.9069 65.5191 53.7335 64.8258 53.4669C63.7591 53.0402 62.9325 52.6135 62.3191 52.2669C61.9725 51.0402 61.5725 49.3335 61.2791 47.2802C61.0125 45.2802 60.9591 43.8135 60.9058 41.9469C60.7991 38.1869 61.0125 35.1202 61.1725 33.2802C61.3058 31.7335 61.5191 29.7869 61.8925 27.5735Z" fill="#6A3EA1"/>
<path d="M59.9201 14.6135C59.7601 14.3468 59.4934 14.0001 59.2801 14.0268C59.1467 14.0535 59.0401 14.2668 58.9601 14.6668C58.7734 15.6535 58.9067 16.4801 58.9067 16.5868C59.1467 17.9735 59.4134 18.7201 59.4134 18.7201C59.9201 20.0801 60.9067 22.5868 62.2667 25.8135C62.2667 26.2935 62.2667 26.7735 62.2667 27.2535C62.8534 26.7201 63.3867 26.4001 63.7867 26.1868C64.2667 25.9201 64.6667 25.7335 65.2001 25.7068C65.6801 25.6801 66.0801 25.8135 66.3201 25.8935C66.0001 25.3868 66.0001 24.9868 66.0267 24.7468C66.0534 24.5335 66.1334 24.4268 66.6134 23.4935C66.9867 22.8001 67.0401 22.6935 67.0934 22.5601C67.3334 22.0001 67.4667 21.7335 67.4667 21.3868C67.4667 20.8801 67.2534 20.2135 66.9067 20.1868C66.8534 20.1868 66.6401 20.1868 66.3734 20.6135C65.9734 18.7735 65.8934 17.2535 65.8934 16.1868C65.8934 15.3868 65.9467 14.2401 65.4401 12.8801C65.0134 11.7068 64.5334 11.4135 64.2667 11.3068C63.8934 11.1468 63.4934 11.2001 62.6934 11.3068C61.9467 11.4135 61.6001 11.4668 61.3334 11.7335C61.2801 11.8135 61.2267 11.8935 61.1201 12.9068C61.0134 14.0801 61.0134 14.6668 61.0134 15.0401C61.0134 15.0401 61.0134 15.2268 61.0134 15.3868C61.0401 15.9201 61.1467 16.8801 61.4934 18.2935C61.1734 17.1735 60.5601 15.6268 59.9201 14.6135Z" fill="white"/>
<path d="M66.4261 20.8535C66.5327 20.6935 66.6394 20.5602 66.7994 20.4535C66.9594 20.3468 67.3861 20.1602 67.3861 20.5068C67.3861 20.6402 67.5994 20.6402 67.5994 20.5068C67.5994 20.2135 67.3327 20.0535 67.0661 20.1068C66.7194 20.1602 66.4527 20.4802 66.2661 20.7468C66.1861 20.8535 66.3461 20.9602 66.4261 20.8535Z" fill="#180E25"/>
<path d="M67.493 21.1735C67.333 22.0002 67.0397 22.7735 66.5863 23.4668C66.2663 23.9735 65.9463 24.4268 65.973 25.0668C65.973 25.2002 66.1863 25.2002 66.1863 25.0668C66.133 24.2402 66.7997 23.6002 67.1197 22.9068C67.3863 22.3735 67.5463 21.7868 67.6797 21.2002C67.7063 21.1202 67.5197 21.0668 67.493 21.1735Z" fill="#180E25"/>
<path d="M62.2127 25.4401C61.386 23.5201 60.5594 21.5734 59.8394 19.6001C59.546 18.7734 59.2794 17.9201 59.1194 17.0401C59.0127 16.5068 58.8794 15.9201 58.9594 15.3868C59.0394 14.8268 59.2794 13.5468 59.8394 14.6668C59.8927 14.7734 60.0794 14.6934 59.9994 14.5601C59.8394 14.2668 59.706 14.0801 59.4394 13.8401C59.386 13.7868 59.3327 13.8134 59.2794 13.8668C58.266 15.3601 58.906 17.3868 59.4127 18.9601C60.1327 21.2001 61.0927 23.3601 62.026 25.5201C62.0794 25.6534 62.266 25.5468 62.2127 25.4401Z" fill="#180E25"/>
<path d="M60.24 15.5468C60.6133 16.4268 61.0133 17.2802 61.3867 18.1602C61.44 18.2668 61.6 18.1868 61.5467 18.0535C61.1733 17.1735 60.7733 16.3202 60.4 15.4402C60.3467 15.3335 60.1866 15.4402 60.24 15.5468Z" fill="#180E25"/>
<path d="M61.6004 17.2534C61.4137 15.5467 60.9604 13.2001 61.6537 11.5734C61.707 11.4667 61.5204 11.4134 61.467 11.5201C60.7737 13.1734 61.227 15.5201 61.4137 17.2534C61.4137 17.3601 61.6004 17.3867 61.6004 17.2534Z" fill="#180E25"/>
<path d="M61.8391 11.7333C62.3191 13.4933 62.6658 15.28 62.9591 17.0666C62.9858 17.2 63.1725 17.1466 63.1458 17.0133C62.8791 15.2 62.5058 13.44 62.0258 11.68C61.9992 11.5733 61.8125 11.6266 61.8391 11.7333Z" fill="#180E25"/>
<path d="M63.0398 11.5468C64.0265 12.9068 64.2131 15.1468 64.5065 16.7735C64.5331 16.9068 64.7198 16.8535 64.6931 16.7202C64.3998 15.0402 64.2398 12.8535 63.1998 11.4402C63.1465 11.3335 62.9598 11.4402 63.0398 11.5468Z" fill="#180E25"/>
<path d="M65.4395 12.9335C65.6528 14.0268 65.8128 15.1202 65.8662 16.2135C65.8662 16.3468 66.0795 16.3468 66.0795 16.2135C65.9995 15.0935 65.8662 13.9735 65.6262 12.8802C65.5995 12.7735 65.4128 12.8268 65.4395 12.9335Z" fill="#180E25"/>
<path d="M92.2663 34.9336C85.0663 38.0269 77.9729 41.4136 71.0129 45.0136C70.9063 45.0669 71.0129 45.2536 71.1196 45.1736C78.0796 41.5469 85.1729 38.1869 92.3729 35.0936C92.4796 35.0669 92.3729 34.8803 92.2663 34.9336Z" fill="#180E25"/>
<path d="M71.0661 45.0136C69.4128 38.7736 68.0528 32.4536 66.9861 26.0536C66.9595 25.9202 66.7728 25.9736 66.7995 26.1069C67.8661 32.4802 69.2261 38.8002 70.8795 45.0669C70.9061 45.2002 71.0928 45.1469 71.0661 45.0136Z" fill="#180E25"/>
<path d="M62.3995 27.3602C63.5461 26.4536 64.8528 25.5202 66.3728 26.0269C66.5061 26.0802 66.5595 25.8669 66.4261 25.8402C64.8261 25.3069 63.4661 26.2669 62.2661 27.2002C62.1328 27.2802 62.2928 27.4402 62.3995 27.3602Z" fill="#180E25"/>
<path d="M61.7593 28.0267C60.6127 34.9067 60.506 41.92 61.386 48.8267C61.4127 48.96 61.5993 48.96 61.5993 48.8267C60.7193 41.92 60.826 34.9334 61.9727 28.08C61.9727 27.9467 61.786 27.8934 61.7593 28.0267Z" fill="#180E25"/>
<path d="M62.7467 52.6133C70.4267 56.56 79.2534 55.4133 87.04 52.4266C87.1467 52.3733 87.12 52.1866 86.9867 52.24C79.2534 55.2266 70.48 56.3733 62.8534 52.4533C62.7467 52.3733 62.64 52.56 62.7467 52.6133Z" fill="#180E25"/>
<path d="M75.1205 50.5072C78.1071 47.8672 84.3738 42.3206 87.3605 39.6806C87.9738 39.1472 91.8671 35.7072 92.4538 35.1739C94.6405 34.8006 97.6805 34.3472 101.334 33.9206C106.587 33.3072 110.294 32.9072 114.907 33.0406C117.894 33.1206 122.027 33.4672 126.96 34.5606C127.014 36.1339 126.987 38.2939 126.56 40.8539C126.32 42.4006 125.387 47.4939 122 53.2539C121.04 54.8806 119.467 57.5206 117.04 59.8139C108.88 67.5472 96.7205 66.1072 96.1338 66.0272C82.2138 64.1872 75.6805 51.6272 75.1205 50.5072Z" fill="#6A3EA1"/>
<path d="M75.1999 50.5869C79.6532 46.6402 84.1066 42.6935 88.5599 38.7469C88.6666 38.6669 88.5066 38.5335 88.4266 38.6135C83.9732 42.5602 79.5199 46.5069 75.0666 50.4535C74.9599 50.5069 75.0932 50.6669 75.1999 50.5869Z" fill="#180E25"/>
<path d="M92.4794 35.2801C102.079 33.8401 111.759 32.4534 121.466 33.5467C121.599 33.5734 121.599 33.3601 121.466 33.3334C111.759 32.2134 102.026 33.6267 92.4261 35.0667C92.2928 35.1201 92.3461 35.3067 92.4794 35.2801Z" fill="#180E25"/>
<path d="M126.693 39.2801C125.68 46.9601 122.267 54.1335 116.96 59.7601C116.88 59.8668 117.013 60.0001 117.093 59.8935C122.453 54.2135 125.867 46.9868 126.907 39.2535C126.907 39.1468 126.72 39.1468 126.693 39.2801Z" fill="#180E25"/>
<path d="M95.1467 39.0401C101.44 38.2934 107.787 38.0801 114.133 38.4001C114.64 38.4267 114.64 37.6267 114.133 37.6001C107.787 37.2801 101.44 37.4934 95.1467 38.2401C94.64 38.2934 94.6133 39.0934 95.1467 39.0401Z" fill="#EFE9F7"/>
<path d="M91.4139 43.0934C98.7739 42.4801 106.134 42.4267 113.494 42.9867C114.001 43.0134 114.001 42.2134 113.494 42.1867C106.134 41.6534 98.7473 41.68 91.4139 42.2934C90.9073 42.3201 90.9073 43.1201 91.4139 43.0934Z" fill="#EFE9F7"/>
<path d="M67.786 40.8274C69.8927 41.2274 72.8793 41.8674 76.346 42.8807C82.2927 44.5874 86.6394 46.4807 91.0927 48.4007C94.186 49.7341 98.1594 51.5741 102.719 53.9741C102.399 55.2541 101.893 56.6674 101.119 58.0807C97.466 64.6407 90.266 66.6407 88.1327 67.1741C86.7727 66.4274 84.6394 65.2807 81.9993 63.9474C74.666 60.2407 72.186 59.6274 68.8527 57.0941C67.0927 55.7341 64.666 53.5474 62.3727 50.0007C64.186 46.9341 65.9727 43.8941 67.786 40.8274Z" fill="white"/>
<path d="M69.2252 40.8802C80.0785 43.8402 90.6118 47.8935 100.612 53.0135C100.719 53.0669 100.825 52.9069 100.719 52.8535C90.6918 47.7335 80.1585 43.6535 69.2785 40.6935C69.1452 40.6669 69.0919 40.8535 69.2252 40.8802Z" fill="#180E25"/>
<path d="M66.2925 55.9467C73.1191 59.3067 79.8658 62.8534 86.5058 66.5601C86.6125 66.6134 86.7191 66.4534 86.6125 66.4001C79.9725 62.6934 73.2258 59.1467 66.3991 55.7867C66.2925 55.7067 66.1858 55.8934 66.2925 55.9467Z" fill="#180E25"/>
<path d="M114.32 153.733L66.6399 154.373C66.6399 145.013 85.1732 156.267 85.1732 145.12C85.1732 136.987 83.9466 125.413 83.4132 123.947C88.1066 123.947 91.9999 123.947 96.6932 123.947C96.1866 124.96 95.5732 135.493 95.5732 145.227C95.5732 155.573 114.32 144.747 114.32 153.733Z" fill="#C2C018"/>
<path d="M52.7999 74.56L41.4399 79.1733C40.4533 79.5733 39.8666 80.8 40.0799 82.0533L43.5999 104.32C43.7866 105.493 44.6133 106.347 45.5999 106.373L57.1999 106.48C58.4266 106.48 59.3599 105.2 59.2533 103.707C59.1466 102.373 58.2133 101.387 57.1199 101.44L48.6933 101.893C47.6799 101.947 46.7733 101.067 46.5866 99.84L44.3733 85.3333C44.1599 84.0267 44.8266 82.7467 45.8933 82.4L54.1066 79.84C55.3066 79.4667 55.9733 77.8667 55.4933 76.4533L55.3599 76.0267C54.9333 74.8 53.8133 74.16 52.7999 74.56Z" fill="#C2C018"/>
<path d="M124.267 74.56L139.093 79.1733C140.373 79.5733 141.147 80.8 140.88 82.0533L136.293 104.32C136.053 105.493 134.96 106.347 133.707 106.373L118.587 106.48C117.013 106.48 115.76 105.2 115.92 103.707C116.053 102.373 117.28 101.387 118.693 101.44L129.68 101.893C131.013 101.947 132.16 101.067 132.427 99.84L135.307 85.3333C135.573 84.0267 134.693 82.7467 133.333 82.4L122.64 79.84C121.067 79.4667 120.213 77.8667 120.827 76.4533L121.013 76.0267C121.493 74.8 122.933 74.16 124.267 74.56Z" fill="#C2C018"/>
<path d="M111.147 129.173H65.4134C61.4934 129.173 58.2134 126.24 57.7601 122.373L50.8267 63.4666C50.2934 58.8799 53.8667 54.8533 58.4801 54.8533H120.427C125.173 54.8533 128.773 59.0933 128.053 63.7599L118.747 122.667C118.16 126.4 114.933 129.173 111.147 129.173Z" fill="#DEDC52"/>
<path d="M79.7598 87.3334C80.9865 87.6801 82.2131 88.0267 83.4398 88.3734C83.9465 88.5067 84.1598 87.7334 83.6531 87.6001C82.4265 87.2534 81.1998 86.9067 79.9731 86.5601C79.4665 86.4267 79.2531 87.2001 79.7598 87.3334Z" fill="#565510"/>
<path d="M84.2392 88C85.4659 86.3467 86.6926 84.72 87.9192 83.0667C88.2392 82.6667 87.5459 82.2667 87.2259 82.6667C85.9992 84.32 84.7726 85.9467 83.5459 87.6C83.2259 88 83.9192 88.4 84.2392 88Z" fill="#565510"/>
<path d="M87.2261 83.1468C87.2794 89.6802 87.3061 96.2135 87.3594 102.747C87.3594 103.254 88.1594 103.254 88.1594 102.747C88.1061 96.2135 88.0794 89.6802 88.0261 83.1468C88.0261 82.6402 87.2261 82.6402 87.2261 83.1468Z" fill="#565510"/>
<path d="M80.133 86.8267C82.3996 83.0934 84.693 79.3867 86.9596 75.6534C87.2263 75.2 86.533 74.8 86.2663 75.2534C83.9996 78.9867 81.7063 82.6934 79.4396 86.4267C79.1729 86.8534 79.8663 87.28 80.133 86.8267Z" fill="#565510"/>
<path d="M87.3059 75.4667C88.9859 75.4667 90.6659 75.4667 92.3459 75.4667C92.8526 75.4667 92.8526 74.6667 92.3459 74.6667C90.6659 74.6667 88.9859 74.6667 87.3059 74.6667C86.7992 74.6667 86.7992 75.4667 87.3059 75.4667Z" fill="#565510"/>
<path d="M92.2664 75.8133C92.2664 84.6934 92.2664 93.5734 92.2664 102.453C92.2664 102.96 93.0664 102.96 93.0664 102.453C93.0664 93.5734 93.0664 84.6934 93.0664 75.8133C93.0664 75.3067 92.2664 75.3067 92.2664 75.8133Z" fill="#565510"/>
<path d="M87.5731 102.533C85.9198 102.533 84.2931 102.533 82.6398 102.533C82.1331 102.533 82.1331 103.333 82.6398 103.333C84.2931 103.333 85.9198 103.333 87.5731 103.333C88.0798 103.333 88.0798 102.533 87.5731 102.533Z" fill="#565510"/>
<path d="M81.7592 104.48C81.7592 105.387 81.7592 106.293 81.7592 107.173C81.7592 107.68 82.5591 107.68 82.5591 107.173C82.5591 106.267 82.5591 105.36 82.5591 104.48C82.5591 103.947 81.7592 103.947 81.7592 104.48Z" fill="#565510"/>
<path d="M82.88 108.4C87.28 108.4 91.6533 108.4 96.0533 108.4C96.56 108.4 96.56 107.6 96.0533 107.6C91.6533 107.6 87.28 107.6 82.88 107.6C82.3466 107.6 82.3466 108.4 82.88 108.4Z" fill="#565510"/>
<path d="M93.4399 103.333C94.8799 103.333 96.3466 103.333 97.7866 103.333C98.2933 103.333 98.2933 102.533 97.7866 102.533C96.3466 102.533 94.8799 102.533 93.4399 102.533C92.9333 102.533 92.9333 103.333 93.4399 103.333Z" fill="#565510"/>
<path d="M97.5197 104.24C97.5197 105.467 97.5197 106.667 97.5197 107.893C97.5197 108.4 98.3196 108.4 98.3196 107.893C98.3196 106.667 98.3196 105.467 98.3196 104.24C98.3196 103.733 97.5197 103.733 97.5197 104.24Z" fill="#565510"/>
<path d="M69.2537 82.4797C71.6004 81.6797 72.7203 79.2797 73.6803 77.173C74.907 74.453 75.7337 71.5997 76.187 68.6397C75.947 68.6664 75.707 68.693 75.467 68.7464C76.3203 70.693 78.587 71.1997 80.507 71.2797C83.0403 71.3597 85.4937 70.5864 87.5737 69.1464C88.0003 68.853 87.6003 68.1597 87.1737 68.453C85.4403 69.653 83.467 70.3997 81.3603 70.4797C79.4937 70.5597 77.0137 70.293 76.1603 68.373C76.027 68.0797 75.467 68.133 75.4403 68.4797C75.067 70.9064 74.4537 73.3064 73.547 75.5997C72.667 77.7597 71.4937 80.933 69.0937 81.7597C68.5603 81.8664 68.747 82.6397 69.2537 82.4797Z" fill="#565510"/>
<path d="M96.7199 118.213C99.8932 115.173 104.267 113.76 108.613 114.4C108.907 114.453 109.173 114.24 109.093 113.92C108.08 109.28 109.707 104.4 113.28 101.253C113.68 100.907 113.093 100.347 112.72 100.693C108.933 104.027 107.253 109.227 108.32 114.133C108.48 113.973 108.64 113.813 108.8 113.653C104.16 112.96 99.5199 114.427 96.1332 117.68C95.7599 118 96.3466 118.587 96.7199 118.213Z" fill="#565510"/>
<path d="M97.5199 68.24C99.2532 71.76 104.587 71.9734 107.92 71.44C107.76 71.28 107.6 71.12 107.44 70.96C105.76 75.5201 108.107 80.4267 112.667 82.0267C113.147 82.1867 113.36 81.4134 112.88 81.2534C108.693 79.7867 106.667 75.3067 108.187 71.1734C108.293 70.8534 107.973 70.64 107.707 70.6934C104.72 71.1734 99.7598 71.0134 98.2132 67.84C97.9732 67.3867 97.2799 67.7867 97.5199 68.24Z" fill="#565510"/>
<path d="M68.2663 105.12C70.2663 105.307 71.173 108.16 71.333 109.84C71.493 111.52 71.0663 113.147 70.1863 114.56C69.9996 114.88 70.3996 115.36 70.7463 115.12C74.3196 112.4 77.9196 116.293 79.9996 118.933C80.3196 119.333 80.8796 118.773 80.5596 118.373C78.2663 115.467 74.213 111.493 70.3463 114.453C70.533 114.64 70.7196 114.827 70.9063 115.013C72.0796 113.093 72.4796 110.8 71.9463 108.613C71.5196 106.773 70.373 104.56 68.293 104.373C67.733 104.267 67.7596 105.067 68.2663 105.12Z" fill="#565510"/>
<path d="M73.1465 101.76C74.1331 103.867 75.0131 106.027 75.8398 108.213C76.0265 108.693 76.7998 108.48 76.6131 108C75.7865 105.76 74.8531 103.547 73.8398 101.36C73.6265 100.88 72.9331 101.28 73.1465 101.76Z" fill="#565510"/>
<path d="M76.2929 100.24C76.8795 102.533 77.6528 104.773 78.6128 106.933C78.8262 107.413 79.5195 106.987 79.3062 106.533C78.3728 104.427 77.6262 102.267 77.0662 100.027C76.9329 99.5201 76.1595 99.7334 76.2929 100.24Z" fill="#565510"/>
<path d="M72.6397 105.094C75.1197 104.134 77.5463 103.014 79.8663 101.734C80.3197 101.494 79.9197 100.8 79.4663 101.04C77.1997 102.294 74.853 103.387 72.4263 104.32C71.9463 104.507 72.1597 105.28 72.6397 105.094Z" fill="#565510"/>
<path d="M74.1873 107.734C76.0806 106.72 78.0273 105.734 79.974 104.827C80.4273 104.614 80.0273 103.92 79.574 104.134C77.6273 105.067 75.7073 106.027 73.7873 107.04C73.334 107.28 73.734 107.974 74.1873 107.734Z" fill="#565510"/>
<path d="M28.7735 69.7333C27.9735 69.5467 26.8269 69.3333 25.4402 69.12C20.6669 68.4533 14.1335 68.4267 13.8935 69.7067C13.7335 70.48 15.9469 71.44 18.9869 72.9067C22.7202 74.6933 27.9735 77.3867 34.2669 81.0933C35.2002 78.6133 36.1069 76.1333 37.0402 73.6533C36.8802 73.0933 36.3735 71.4667 34.8002 70.32C32.1602 68.4267 29.0135 69.6267 28.7735 69.7333Z" fill="#180E25"/>
<path d="M14.8535 70.1599C18.6668 70.0533 22.2135 71.6266 25.5468 73.3599C28.5868 74.9333 31.4135 76.8266 33.8401 79.2266C33.9201 79.3066 34.0801 79.1733 33.9735 79.0933C31.4135 76.5866 28.4268 74.6133 25.2268 72.9866C21.9735 71.3333 18.5335 69.8666 14.8268 69.9733C14.7468 69.9733 14.7468 70.1599 14.8535 70.1599Z" fill="#EFEEF0"/>
<path d="M24.2401 69.0933C24.8801 69.4933 25.3068 70.08 25.5201 70.8C25.5468 70.9333 25.7601 70.88 25.7068 70.7467C25.4934 69.9733 25.0134 69.3333 24.3468 68.9067C24.2401 68.8533 24.1334 69.0133 24.2401 69.0933Z" fill="#EFEEF0"/>
<path d="M25.6009 69.2796C26.2409 69.6263 26.6942 70.213 26.8276 70.933C26.8542 71.0663 27.0409 71.013 27.0142 70.8796C26.8542 70.1063 26.3742 69.4663 25.6809 69.093C25.5742 69.0396 25.4942 69.2263 25.6009 69.2796Z" fill="#EFEEF0"/>
<path d="M27.0684 69.5997C27.495 69.9464 27.7617 70.4264 27.8417 70.9864C27.8684 71.1197 28.055 71.0664 28.0284 70.9331C27.9484 70.3464 27.655 69.8131 27.2017 69.4397C27.1217 69.3864 26.9617 69.5197 27.0684 69.5997Z" fill="#EFEEF0"/>
<path d="M28.4004 69.6531C29.2271 69.5998 30.3204 69.6265 31.5737 69.9198C34.2404 70.5865 35.9471 72.1865 36.6937 72.9865C37.7337 72.3731 38.7737 71.7598 39.8137 71.0931C45.5737 67.4931 49.4671 64.3731 51.4137 62.8531C54.5337 60.4265 59.1737 57.0665 65.5737 53.2265C66.0804 52.6131 67.8671 50.3998 67.4671 47.7331C66.9604 44.2398 63.0137 41.1998 57.8937 41.3865C57.3337 41.1731 56.3737 40.9065 55.2004 40.9865C54.9337 41.0131 53.7604 41.1198 52.1071 42.0531C50.9071 42.7465 50.2671 43.4398 48.7471 45.0131C45.2537 48.6398 45.6271 48.2398 45.3071 48.5598C43.2804 50.8265 41.9737 52.4531 40.4804 54.3198C35.2537 60.7731 34.5604 61.2265 31.5737 65.2265C30.1604 67.0931 29.0671 68.6665 28.4004 69.6531Z" fill="white"/>
<path d="M28.6398 69.2266C32.9865 63.8132 37.3065 58.3732 41.6798 52.9599C43.7332 50.3999 45.8665 47.8932 48.2132 45.5732C49.3865 44.3999 50.6132 43.2532 51.9198 42.2399C53.7598 40.8266 55.6532 40.9332 57.8398 41.4399C57.9732 41.4666 58.0265 41.2799 57.8932 41.2532C56.5065 40.9332 55.0132 40.6132 53.5998 41.0666C52.3732 41.4666 51.3598 42.4266 50.3998 43.2799C47.6265 45.7066 45.1465 48.4266 42.7998 51.2532C37.9465 57.1199 33.2265 63.1466 28.4532 69.0932C28.4265 69.1999 28.5598 69.3332 28.6398 69.2266Z" fill="#180E25"/>
<path d="M37.2267 73.1198C46.3467 66.4532 55.6 59.9732 65.0133 53.6799C65.12 53.5999 65.0133 53.4399 64.9067 53.5199C55.52 59.8132 46.24 66.2932 37.12 72.9598C37.0133 73.0132 37.12 73.1999 37.2267 73.1198Z" fill="#180E25"/>
<path d="M28.4004 69.76C29.9204 69.7066 31.387 69.8666 32.8004 70.48C34.0804 71.04 35.8404 71.8666 36.6137 73.04C36.6937 73.1466 36.8537 73.04 36.7737 72.9333C35.9737 71.7066 34.347 70.96 33.067 70.3733C31.547 69.68 30.027 69.4933 28.3737 69.5466C28.267 69.5733 28.267 69.76 28.4004 69.76Z" fill="#180E25"/>
<path d="M36.2399 74.5866C35.3866 74.4 34.1333 74.1333 32.6399 73.9466C27.4933 73.2266 20.4799 73.2 20.1866 74.56C20.0266 75.3866 22.3999 76.4266 25.6533 77.9999C29.6799 79.9199 35.3333 82.7999 42.1066 86.7999C43.0932 84.1333 44.1066 81.4933 45.0933 78.8266C44.9333 78.2133 44.3732 76.48 42.6666 75.2533C39.8666 73.2 36.5066 74.48 36.2399 74.5866Z" fill="#180E25"/>
<path d="M21.2536 75.04C25.3069 74.9334 29.0936 76.5867 32.6402 78.4C35.9469 80.1067 39.0669 82.16 41.7336 84.7467C41.8136 84.8267 41.9736 84.6934 41.8669 84.6134C39.0936 81.8934 35.8136 79.76 32.3469 78.0267C28.8802 76.2934 25.2002 74.7467 21.2536 74.8534C21.1202 74.8534 21.1202 75.04 21.2536 75.04Z" fill="#EFEEF0"/>
<path d="M31.3594 73.8932C32.026 74.3198 32.506 74.9598 32.746 75.7332C32.7727 75.8665 32.986 75.8132 32.9327 75.6798C32.6927 74.8532 32.186 74.1865 31.466 73.7065C31.3594 73.6532 31.2527 73.8398 31.3594 73.8932Z" fill="#EFEEF0"/>
<path d="M32.8277 74.1067C33.5211 74.48 34.0011 75.12 34.1611 75.8933C34.1877 76.0267 34.3744 75.9733 34.3477 75.84C34.1877 75.0133 33.6544 74.32 32.9077 73.9467C32.8011 73.8666 32.6944 74.0533 32.8277 74.1067Z" fill="#EFEEF0"/>
<path d="M34.4008 74.4533C34.8808 74.8266 35.1474 75.36 35.2541 75.9466C35.2807 76.08 35.4674 76.0266 35.4407 75.8933C35.3607 75.2533 35.0408 74.6933 34.5341 74.2933C34.4541 74.2133 34.2941 74.3733 34.4008 74.4533Z" fill="#EFEEF0"/>
<path d="M68.7465 40.6133C68.0531 40.7466 67.0398 40.9866 65.8932 41.5466C64.5598 42.2133 63.6798 42.9866 63.2798 43.3333C57.6265 48.5333 53.8132 53.3333 53.8132 53.3333C48.1065 60.5599 47.8131 59.7599 38.4798 71.3333C37.4131 72.6399 36.5598 73.7333 35.9731 74.4533C36.7731 74.4799 37.9465 74.5599 39.2798 74.9333C40.1598 75.1733 41.2798 75.4933 42.5331 76.2933C43.1998 76.7199 44.2398 77.5199 45.1731 78.8799C50.6931 74.0799 56.3998 69.2799 62.2932 64.4266C67.1465 60.4266 71.9731 56.5599 76.7465 52.8266C77.6265 51.1999 77.7065 49.8666 77.6532 49.0666C77.4398 45.3599 73.8932 41.9199 68.7465 40.6133Z" fill="white"/>
<path d="M67.7605 40.7466C64.6138 41.5999 62.3738 43.9466 60.2138 46.2666C57.3605 49.3066 54.5605 52.3733 51.7871 55.4933C46.3205 61.6533 41.0138 67.9733 35.8938 74.4266C35.8138 74.5333 35.9471 74.6666 36.0271 74.5599C40.9338 68.3733 46.0005 62.2933 51.2271 56.3733C53.8138 53.4399 56.4271 50.5599 59.0938 47.6799C61.5738 45.0133 64.1071 41.9199 67.7605 40.9066C67.9471 40.8799 67.8938 40.6933 67.7605 40.7466Z" fill="#180E25"/>
<path d="M76.0798 53.3067C65.6531 61.44 55.4398 69.8133 45.4131 78.4533C45.3064 78.5333 45.4664 78.6667 45.5464 78.5867C55.5731 69.9467 65.7864 61.5733 76.2131 53.44C76.3198 53.36 76.1598 53.2267 76.0798 53.3067Z" fill="#180E25"/>
<path d="M36.2937 74.88C37.8404 74.3467 39.9737 75.12 41.3871 75.8133C42.8537 76.5067 44.1071 77.52 45.0404 78.88C45.1204 78.9867 45.2804 78.88 45.2004 78.7733C44.1871 77.28 42.7737 76.1867 41.1204 75.4667C39.7071 74.8533 37.7604 74.1867 36.2404 74.6933C36.1337 74.72 36.1871 74.9333 36.2937 74.88Z" fill="#180E25"/>
<path d="M108.693 56.5067C108.48 56.2401 108.213 55.8667 107.973 55.4134C107.84 55.1467 107.547 54.5867 107.307 53.7334C107.147 53.2001 107.173 53.0401 106.933 51.4667C106.933 51.4667 106.8 50.4267 106.507 49.0401C106.293 47.9201 106.16 47.4667 105.787 47.3067C105.52 47.2001 105.2 47.2534 104.96 47.3867C104.693 47.5467 104.533 47.8667 104.453 48.4801C104.373 49.0134 104.293 49.8401 104.453 50.9067C104.08 50.8801 103.573 50.8267 102.987 50.8267C100.96 50.7734 99.5466 50.7467 99.12 51.4667C99.0133 51.6534 98.8266 52.1334 99.3066 53.1201C99.2533 53.2001 98.9066 53.6534 99.0133 54.2667C99.0666 54.6667 99.28 54.9334 99.3866 55.0401C99.3333 55.2267 99.2 55.6534 99.3333 56.1867C99.4666 56.8001 99.84 57.1467 100 57.2801C100.187 57.6001 100.507 58.0267 101.04 58.3201C101.493 58.5601 101.733 58.5334 102.827 58.6934C103.813 58.8534 104.427 58.9334 105.093 59.2001C105.76 59.4667 106.24 59.8401 106.533 60.0801C106.693 59.5467 106.96 58.8001 107.44 58.0001C107.893 57.3334 108.32 56.8534 108.693 56.5067Z" fill="white"/>
<path d="M112.907 34.5866C113.52 33.9999 114.4 33.2532 115.52 32.4266C116.4 31.7866 117.52 30.9866 119.12 30.2132C121.973 28.8266 123.92 28.7466 124.4 28.7199C125.52 28.6932 126.213 28.8532 126.8 29.1999C127.467 29.5732 127.867 30.1066 128.16 30.5066C128.827 31.3866 129.093 32.1866 129.2 32.5066C129.893 34.5599 129.387 32.4532 131.173 37.3866C131.92 39.4399 132.4 40.7999 133.013 42.7999C133.573 44.5866 134.133 46.5599 134.667 48.7466C135.12 50.6132 135.627 52.8532 136.107 55.4399C136.213 56.0532 136.533 57.8932 136.853 60.2932C137.333 63.8132 137.04 62.9332 137.413 65.5199C137.573 66.6666 137.733 67.4932 137.547 68.6666C137.52 68.9066 137.333 69.8932 136.72 71.0666C136.4 71.6799 135.147 73.9732 132.507 75.0666C131.04 75.6532 129.653 75.6799 128.987 75.6799C128.693 75.6799 128.213 75.6799 127.547 75.5999C124.933 75.2799 122.613 74.2666 121.947 73.9466C120.933 73.4932 118.907 72.4799 116.32 70.5599C113.707 68.6132 113.227 67.7599 109.333 64.4266C108.053 63.3599 107.013 62.5066 106.32 61.9732C106.347 61.3332 106.453 60.3999 106.88 59.3599C107.413 57.9999 108.187 57.0932 108.693 56.5866C110.587 57.4132 112.56 58.2399 114.64 59.0399C118.133 60.3999 121.493 61.5466 124.693 62.5332C124.4 61.5466 123.973 60.1599 123.413 58.4799C121.253 51.9732 119.013 47.1466 117.387 43.6532C116.293 41.1999 114.8 38.1066 112.907 34.5866Z" fill="#6A3EA1"/>
<path d="M115.2 32.8266C116.88 31.4399 118.8 30.3199 120.88 29.6266C123.226 28.8266 126.16 28.1066 127.92 30.3466C129.226 31.9999 129.866 34.2666 130.613 36.1866C131.386 38.1866 132.106 40.2132 132.746 42.2399C135.333 50.3999 136.906 58.8532 137.466 67.3866C137.466 67.5199 137.68 67.5199 137.68 67.3866C137.04 57.6799 135.093 48.0799 131.84 38.9066C131.066 36.7199 130.24 34.5599 129.306 32.4532C128.613 30.8532 127.733 29.1732 125.893 28.7199C124 28.2666 121.733 29.0399 120 29.7332C118.213 30.4532 116.56 31.4666 115.066 32.6932C114.96 32.7466 115.093 32.9066 115.2 32.8266Z" fill="#180E25"/>
<path d="M117.226 43.4399C120.08 49.1999 122.453 55.1732 124.346 61.3066C124.373 61.4399 124.586 61.3866 124.533 61.2532C122.64 55.0932 120.24 49.1199 117.386 43.3332C117.36 43.2266 117.173 43.3332 117.226 43.4399Z" fill="#180E25"/>
<path d="M108.8 56.6131C113.76 58.7198 118.8 60.6131 123.92 62.2664C124.054 62.3198 124.107 62.1064 123.974 62.0798C118.88 60.4264 113.84 58.5331 108.907 56.4531C108.774 56.3998 108.667 56.5598 108.8 56.6131Z" fill="#180E25"/>
<path d="M108.586 56.5598C107.12 57.8132 106.32 59.6265 106.426 61.5465C106.426 61.6798 106.64 61.6798 106.64 61.5465C106.56 59.6532 107.306 57.9198 108.746 56.6932C108.826 56.6132 108.693 56.4798 108.586 56.5598Z" fill="#180E25"/>
<path d="M106.826 62.0534C111.573 66.8001 116.586 71.8934 122.933 74.4267C125.84 75.5734 129.226 76.2667 132.266 75.2001C135.36 74.1334 136.8 71.6267 137.653 68.6401C137.68 68.5067 137.493 68.4534 137.466 68.5867C136.453 72.1601 134.426 74.8267 130.56 75.4134C127.28 75.9201 123.893 74.8001 121.013 73.3334C115.626 70.5867 111.226 66.1334 106.986 61.9201C106.88 61.8134 106.72 61.9467 106.826 62.0534Z" fill="#180E25"/>
<path d="M104.587 51.1999C104.56 50.0799 104.133 47.8933 105.333 47.3066C105.44 47.2533 105.36 47.0666 105.227 47.1466C103.867 47.8399 104.373 49.9999 104.373 51.2266C104.373 51.3333 104.587 51.3333 104.587 51.1999Z" fill="#180E25"/>
<path d="M105.813 47.6533C107.333 50.32 106.346 53.8133 108.453 56.2133C108.533 56.32 108.666 56.16 108.586 56.08C106.506 53.7066 107.466 50.2133 105.973 47.5466C105.92 47.44 105.76 47.5466 105.813 47.6533Z" fill="#180E25"/>
<path d="M99.4132 51.4132C100.133 51.0399 101.12 51.0399 101.92 50.9599C102.613 50.9065 103.307 50.9065 104 50.9599C104.133 50.9599 104.133 50.7732 104 50.7465C103.067 50.6665 102.16 50.7199 101.253 50.8265C100.613 50.9065 99.9199 50.9332 99.3332 51.2265C99.1999 51.2799 99.3065 51.4665 99.4132 51.4132Z" fill="#180E25"/>
<path d="M99.2533 53.1999C99.7333 53.7866 100.347 54.2132 101.04 54.4532C101.173 54.5066 101.227 54.2932 101.093 54.2666C100.4 54.0266 99.84 53.6266 99.3866 53.0666C99.3066 52.9599 99.1733 53.0932 99.2533 53.1999Z" fill="#180E25"/>
<path d="M99.0926 54.6131C99.3326 55.5198 100.533 56.1065 101.333 56.4265C101.439 56.4798 101.493 56.2931 101.386 56.2398C100.666 55.9465 99.5193 55.3865 99.3059 54.5865C99.2526 54.4265 99.0393 54.4798 99.0926 54.6131Z" fill="#180E25"/>
<path d="M99.4132 56.64C99.8665 57.2 100.293 58.0267 100.96 58.3734C101.627 58.6934 102.507 58.7467 103.227 58.8267C103.36 58.8267 103.36 58.64 103.227 58.6134C102.507 58.5334 101.28 58.48 100.72 57.9467C100.267 57.5467 99.9465 56.96 99.5732 56.5067C99.4665 56.4 99.3332 56.56 99.4132 56.64Z" fill="#180E25"/>
<path d="M104.16 58.9866C105.013 59.1733 105.813 59.5733 106.48 60.1333C106.586 60.2133 106.72 60.08 106.613 60C105.92 59.4133 105.093 59.0133 104.213 58.8C104.08 58.7733 104.026 58.96 104.16 58.9866Z" fill="#180E25"/>
</svg>
