<svg width="280" height="280" viewBox="0 0 280 280" fill="none" xmlns="http://www.w3.org/2000/svg">
<path d="M17.5934 232.213C50.12 223.253 82.6467 214.247 115.173 205.287C115.407 205.24 115.313 204.867 115.08 204.96C82.5534 213.92 50.0267 222.927 17.5 231.887C17.2667 231.933 17.36 232.26 17.5934 232.213Z" fill="white"/>
<path d="M128.52 206.173C161.42 212.427 193.9 220.64 226.287 229.32C235.387 231.747 244.533 234.22 253.633 236.693C253.867 236.74 253.96 236.413 253.727 236.367C221.387 227.593 189.047 218.773 156.38 211.54C147.187 209.487 137.947 207.573 128.66 205.8C128.427 205.8 128.333 206.127 128.52 206.173Z" fill="white"/>
<path d="M78.3066 255.127H60.9466L55.44 219.38H84.7933L78.3066 255.127Z" fill="#180E25"/>
<path d="M70.14 223.953C78.2328 223.953 84.7933 221.843 84.7933 219.24C84.7933 216.637 78.2328 214.527 70.14 214.527C62.0472 214.527 55.4866 216.637 55.4866 219.24C55.4866 221.843 62.0472 223.953 70.14 223.953Z" fill="white" stroke="#180E25" stroke-miterlimit="10"/>
<path d="M70.7467 181.813C65.2867 185.733 64.12 194.973 68.3667 200.153C71.12 203.513 74.4333 205.847 73.08 210.7C72.0533 214.34 69.86 217.56 69.9533 221.48C70.3733 221.34 70.84 221.247 71.26 221.107C71.12 220.733 70.9333 220.407 70.7933 220.033C70.42 219.193 69.2533 219.94 69.58 220.733C69.72 221.107 69.9067 221.433 70.0467 221.807C70.3267 222.46 71.3533 222.087 71.3533 221.433C71.26 215.227 77.56 209.533 73.3133 203.513C71.26 200.573 68.1333 198.753 67.3867 194.927C66.5933 190.773 67.9 185.453 71.4467 182.887C72.1933 182.513 71.4933 181.3 70.7467 181.813Z" fill="#DEDC52"/>
<path d="M60.7133 195.347C59.4533 198.987 59.5933 203.28 61.88 206.547C62.9533 208.087 64.4933 208.973 65.9866 210.093C68.32 211.773 70.0466 213.967 71.26 216.58C71.6333 217.373 72.8466 216.673 72.4733 215.88C70.84 212.333 68.32 210.14 65.24 207.9C61.32 205.053 60.5266 200.153 62.0666 195.767C62.3466 194.88 60.9933 194.507 60.7133 195.347Z" fill="#DEDC52"/>
<path d="M71.1667 201.04C73.3133 198.707 75.2733 196.327 75.74 193.107C76.02 191.147 75.9267 189.093 76.2067 187.133C76.5333 184.94 77.2333 182.887 78.2133 180.88C78.5867 180.087 77.3733 179.34 77 180.18C75.6 183.12 74.8067 186.2 74.5733 189.467C74.4333 191.567 74.48 193.62 73.5467 195.533C72.7067 197.213 71.4 198.66 70.14 200.013C69.58 200.713 70.56 201.74 71.1667 201.04Z" fill="#DEDC52"/>
<path d="M67.7133 171.78C63.0933 176.447 62.4399 183.96 66.2199 189.327C66.7333 190.073 67.9466 189.373 67.4333 188.627C64.0266 183.773 64.4933 177.007 68.6933 172.76C69.3466 172.153 68.3199 171.127 67.7133 171.78Z" fill="#DEDC52"/>
<path d="M61.32 202.907C60.7133 202.487 56.9333 199.827 56.2333 194.74C55.58 190.12 57.96 186.76 58.4733 186.107C59.4533 187.74 60.6667 190.167 61.32 193.387C62.1133 197.447 61.74 200.9 61.32 202.907Z" fill="#DEDC52"/>
<path d="M65.9866 175.187C65.5666 174.207 64.8666 172.2 65.24 169.773C66.0333 164.593 70.9333 162.213 71.4 161.98C71.5866 163.053 71.68 164.36 71.54 165.807C70.9333 170.987 67.2 174.207 65.9866 175.187Z" fill="#DEDC52"/>
<path d="M68.9266 185.547C68.6466 184.567 67.8533 181.533 69.2066 178.033C70.84 173.833 74.34 172.107 75.1333 171.733C75.2266 173.227 75.18 176.353 73.5466 179.76C72.0533 182.747 70.0466 184.613 68.9266 185.547Z" fill="#DEDC52"/>
<path d="M79.1 192.827C77.5133 194.273 75.6 194.507 74.76 194.553C75.1333 193.153 75.7866 191.333 76.9533 189.373C78.3066 186.993 79.8933 185.313 81.1066 184.24C82.0866 187.507 81.2933 190.867 79.1 192.827Z" fill="#DEDC52"/>
<path d="M76.9066 182.233C76.8133 181.02 76.86 179.107 77.6533 176.96C79.0066 173.227 81.7133 171.22 82.8333 170.473C82.9266 171.687 82.9733 174.907 80.9666 178.173C79.6133 180.32 77.9333 181.58 76.9066 182.233Z" fill="#DEDC52"/>
<path d="M65.52 208.927C64.96 208.133 63.98 206.593 63.7 204.4C63.2333 200.807 65.0066 198.147 65.52 197.447C66.08 198.427 67.2 200.807 67.0133 203.933C66.8266 206.22 66.0333 207.947 65.52 208.927Z" fill="#DEDC52"/>
<path opacity="0.77" d="M25.5733 38.5934L28.84 103.787L80.5933 112.373V43.5867L25.5733 38.5934Z" fill="white" stroke="#180E25" stroke-width="0.75" stroke-miterlimit="10"/>
<path opacity="0.68" d="M5.92667 68.2267C5.92667 68.2267 4.66667 141.54 5.92667 141.773C7.18667 142.007 50.96 151.2 50.96 151.2L54.46 76.58L5.92667 68.2267Z" fill="white" stroke="#180E25" stroke-width="0.75" stroke-miterlimit="10"/>
<path d="M31.4066 47.4601L65.3333 51.2868" stroke="#180E25" stroke-width="0.75" stroke-miterlimit="10"/>
<path d="M29.9134 54.0867L65.1467 57.9133" stroke="#180E25" stroke-width="0.75" stroke-miterlimit="10"/>
<path d="M30.8933 65.3334L64.3533 69.2534" stroke="#180E25" stroke-width="0.75" stroke-miterlimit="10"/>
<path d="M32.6667 59.5934L59.1734 62.4867" stroke="#180E25" stroke-width="0.75" stroke-miterlimit="10"/>
<path d="M70.28 51.9867C70.98 52.64 72.38 54.5067 73.3133 53.1534C73.8733 52.3134 74.2467 51.24 74.76 50.3534C75.32 49.3267 75.9733 48.3467 76.6267 47.4134C77.14 46.6667 75.9267 45.9667 75.4133 46.7134C74.5733 47.9267 73.78 49.14 73.1267 50.4467C72.8467 50.96 72.3333 51.66 72.24 52.22C72.0533 52.5467 72.1466 52.5 72.4267 52.1267C72.3333 52.0334 72.24 51.94 72.1467 51.8467C72.0067 51.5667 71.54 51.2867 71.3067 51.0534C70.6066 50.4 69.58 51.38 70.28 51.9867Z" fill="#6A3EA1"/>
<path d="M70.1867 59.8267C70.7934 60.9467 71.5867 63.1401 73.0334 61.6001C74.2934 60.2467 75.4134 58.6601 76.3934 57.0734C76.86 56.3267 75.6467 55.5801 75.18 56.3734C74.6667 57.1667 74.1534 57.9601 73.5934 58.7067C73.2667 59.1267 72.94 59.5467 72.6134 59.9667C72.4267 60.1534 72.1 60.7601 71.82 60.8067C72.0067 60.8534 72.1934 60.8534 72.38 60.9001C71.96 60.6667 71.5867 59.5467 71.4 59.1267C70.98 58.3334 69.7667 59.0334 70.1867 59.8267Z" fill="#6A3EA1"/>
<path d="M70.2333 68.6933C70.98 69.44 71.3067 72.66 72.94 72.0067C73.6867 71.7267 73.9667 70.6533 74.2933 70C74.8533 68.88 75.3667 67.7133 75.9267 66.5933C76.3 65.8 75.0867 65.0533 74.7134 65.8933C74.2934 66.7333 73.92 67.5733 73.5 68.4133C73.3133 68.7867 73.1733 69.1133 72.9867 69.4867C72.8933 69.72 72.6133 70.6533 72.3333 70.7C72.52 70.7467 72.7067 70.7467 72.8933 70.7933C72.4733 70.56 72.3334 69.5333 72.1467 69.16C71.9134 68.6 71.6333 68.18 71.26 67.7133C70.6067 67.0133 69.58 68.04 70.2333 68.6933Z" fill="#6A3EA1"/>
<path opacity="0.46" d="M8.77332 74.76L45.92 81.2" stroke="#180E25" stroke-width="0.75" stroke-miterlimit="10"/>
<path opacity="0.55" d="M8.91336 81.3867L42.7467 87.4534" stroke="#180E25" stroke-width="0.75" stroke-miterlimit="10"/>
<path opacity="0.61" d="M8.91336 87.4534L41.5334 93.24" stroke="#180E25" stroke-width="0.75" stroke-miterlimit="10"/>
<path opacity="0.61" d="M8.58667 95.3867L40.3667 100.987" stroke="#180E25" stroke-width="0.75" stroke-miterlimit="10"/>
<path opacity="0.61" d="M9.4267 104.953L39.5734 109.76" stroke="#180E25" stroke-width="0.75" stroke-miterlimit="10"/>
<path opacity="0.61" d="M8.77332 115.173L42.0467 121.1" stroke="#180E25" stroke-width="0.75" stroke-miterlimit="10"/>
<path opacity="0.61" d="M9.75333 122.733L33.6467 127.4" stroke="#180E25" stroke-width="0.75" stroke-miterlimit="10"/>
<path opacity="0.61" d="M11.5733 129.967L45.92 137.2" stroke="#180E25" stroke-width="0.75" stroke-miterlimit="10"/>
<path d="M44.7067 86.7534C45.1733 87.5934 45.5467 88.48 46.06 89.2267C46.3867 89.6934 46.7133 89.9267 47.2733 89.9734C47.6 89.9734 47.8333 89.74 47.9267 89.46C48.5333 87.78 49.3267 86.1934 50.3067 84.6534C50.82 83.9067 49.6067 83.2067 49.0933 83.9534C48.0667 85.54 47.2267 87.2667 46.5733 89.0867C46.8067 88.9 47.04 88.76 47.2267 88.5734C46.9933 88.5734 46.0133 86.3334 45.8733 86.0534C45.4533 85.26 44.2867 85.96 44.7067 86.7534Z" fill="#6A3EA1"/>
<path d="M42.98 100.613C43.4 101.407 44.9866 105.373 46.3866 103.46C46.9 102.76 46.9933 101.733 47.4133 100.987C47.9733 99.9601 48.72 99.1201 49.56 98.3268C50.26 97.7201 49.2333 96.7401 48.58 97.3468C47.5066 98.2801 46.5733 99.4468 45.9666 100.707C45.8266 100.987 45.4066 102.48 45.3133 102.48C45.5933 102.433 44.2866 100.053 44.1933 99.9134C43.7733 99.0734 42.56 99.8201 42.98 100.613Z" fill="#6A3EA1"/>
<path d="M42.6067 117.833C43.12 119.42 43.7733 120.96 44.6133 122.407C44.94 122.967 45.6867 122.78 45.8733 122.22C46.8067 119.933 47.7867 117.647 49.14 115.593C49.6533 114.847 48.44 114.147 47.9267 114.893C46.48 117.087 45.5 119.467 44.52 121.847C44.94 121.8 45.36 121.753 45.78 121.66C45.0333 120.307 44.38 118.907 43.9133 117.413C43.68 116.573 42.3267 116.947 42.6067 117.833Z" fill="#6A3EA1"/>
<path opacity="0.83" d="M192.5 59.5934L189.373 98.7467L231.607 106.867L237.393 66.3601L192.5 59.5934Z" fill="white" stroke="#180E25" stroke-width="0.75" stroke-miterlimit="10"/>
<path opacity="0.83" d="M194.087 64.12L222.227 68.2267" stroke="#180E25" stroke-width="0.75" stroke-miterlimit="10"/>
<path opacity="0.83" d="M194.087 68.2267L222.227 72.52" stroke="#180E25" stroke-width="0.75" stroke-miterlimit="10"/>
<path opacity="0.83" d="M193.48 74.1534L222.74 78.9134" stroke="#180E25" stroke-width="0.75" stroke-miterlimit="10"/>
<path opacity="0.83" d="M192.5 79.8467L217.093 84.42" stroke="#180E25" stroke-width="0.75" stroke-miterlimit="10"/>
<path opacity="0.83" d="M193.34 83.8134L215.04 87.5" stroke="#180E25" stroke-width="0.75" stroke-miterlimit="10"/>
<path opacity="0.83" d="M193.2 89.8334L215.18 94.1734" stroke="#180E25" stroke-width="0.75" stroke-miterlimit="10"/>
<g opacity="0.83">
<g opacity="0.83">
<path d="M223.907 71.0267C224.373 71.6801 225.68 74.2934 226.66 72.7067C227.127 71.9601 227.313 71.0267 227.733 70.2801C228.247 69.3934 228.807 68.5534 229.507 67.8067C230.113 67.1534 229.133 66.1267 228.527 66.8267C227.873 67.6201 227.22 68.4134 226.707 69.3001C226.427 69.7201 226.193 70.1867 226.007 70.6534C225.913 70.8401 225.493 71.8667 225.633 71.8201C225.867 71.8667 226.1 71.9601 226.333 72.0067C225.867 71.5401 225.493 70.8867 225.12 70.3267C224.607 69.5801 223.393 70.2801 223.907 71.0267Z" fill="#6A3EA1"/>
</g>
</g>
<path d="M106.633 243.18C106.307 246.213 106.027 249.293 105.7 252.327C110.787 254.66 127.167 262.033 128.707 259.513C130.2 257.04 116.993 246.4 112.42 242.807C110.507 242.947 108.547 243.087 106.633 243.18Z" fill="#180E25"/>
<path d="M113.867 245.373C112.467 244.253 109.947 248.547 111.44 248.92C112.513 249.2 113.54 246.913 113.867 246.26C114.193 245.513 114.333 244.767 114.567 244.02C114.707 243.18 115.22 243.04 116.153 243.647C115.967 243.833 115.78 244.067 115.547 244.253C115.033 244.72 114.52 245.14 113.96 245.56C113.773 245.7 113.96 245.98 114.147 245.84C114.847 245.327 115.5 244.767 116.107 244.16C116.387 243.88 116.947 243.413 116.807 242.947C116.667 242.247 115.78 242.2 115.267 242.48C114.147 243.04 114.053 244.72 113.68 245.747C113.54 246.073 111.86 249.527 111.347 247.987C111.113 247.333 113.027 245.14 113.633 245.607C113.773 245.747 114.053 245.513 113.867 245.373Z" fill="white"/>
<path d="M115.127 248.127C115.547 247.427 116.153 246.913 116.947 246.633C117.18 246.54 117.087 246.213 116.853 246.307C115.967 246.587 115.267 247.147 114.8 247.94C114.707 248.173 115.033 248.313 115.127 248.127Z" fill="white"/>
<path d="M116.573 248.873C116.9 248.173 117.647 247.94 118.347 247.753C118.58 247.707 118.487 247.38 118.253 247.427C117.46 247.613 116.667 247.893 116.293 248.687C116.2 248.92 116.48 249.107 116.573 248.873Z" fill="white"/>
<path d="M117.647 250.04C118.253 249.387 119 249.06 119.887 249.107C120.12 249.107 120.12 248.78 119.887 248.733C118.953 248.687 118.02 249.06 117.413 249.76C117.227 249.993 117.507 250.227 117.647 250.04Z" fill="white"/>
<path d="M105.887 250.88C109.713 253.027 113.773 254.473 117.88 255.92C118.113 256.013 118.207 255.64 117.973 255.593C113.867 254.193 109.853 252.747 106.073 250.6C105.84 250.46 105.653 250.787 105.887 250.88Z" fill="white"/>
<path d="M127.68 150.733C127.26 152.367 126.42 155.867 125.3 160.253C115.5 199.64 112.14 211.68 108.547 231.513C108.127 233.893 107.38 238 106.587 243.18C106.96 243.507 108.173 244.58 110.087 244.673C112.233 244.813 113.68 243.693 114.007 243.413C115.127 240.52 116.993 235.853 119.373 230.067C124.787 217 127.307 211.82 140.093 183.12C144.387 173.507 144.9 172.247 147.84 165.76C151.06 158.62 152.553 155.4 154.933 149.94C157.593 143.827 159.647 138.833 161 135.613C158.48 135.1 156.193 134.96 154.233 135.053C139.86 135.613 130.247 147.42 127.68 150.733Z" fill="white"/>
<path d="M160.58 137.107C144.993 171.687 129.64 206.36 114.427 241.127C114.333 241.313 114.66 241.5 114.707 241.313C129.92 206.547 145.32 171.873 160.86 137.293C160.953 137.107 160.673 136.92 160.58 137.107Z" fill="#180E25"/>
<path d="M126.187 156.473C118.58 184.613 112 213.033 106.4 241.64C106.353 241.873 106.68 241.967 106.727 241.733C112.327 213.127 118.907 184.707 126.513 156.567C126.56 156.333 126.233 156.24 126.187 156.473Z" fill="#180E25"/>
<path d="M106.68 243.833C109.013 245.28 111.907 245.187 114.147 243.6C114.333 243.46 114.147 243.18 113.96 243.32C111.813 244.86 109.107 244.953 106.867 243.553C106.68 243.413 106.493 243.74 106.68 243.833Z" fill="#180E25"/>
<path d="M111.953 255.127C111.627 258.16 111.347 261.24 111.02 264.273C116.107 266.607 132.487 273.98 134.027 271.46C135.52 268.987 122.313 258.347 117.74 254.753C115.827 254.893 113.913 255.033 111.953 255.127Z" fill="#180E25"/>
<path d="M111.067 147.093C111.02 149.287 110.927 152.693 110.88 156.893C110.74 165.62 110.507 184.1 111.393 222.973C111.58 231.14 111.86 242.34 112.327 255.733C112.56 255.92 113.727 256.76 115.36 256.573C116.527 256.433 117.32 255.78 117.6 255.547C119.747 245.607 121.613 237.393 122.92 231.7C129.593 202.253 132.907 187.553 136.08 177.987C137.34 174.16 138.32 170.66 140.327 163.66C145.273 146.207 144.993 144.2 144.107 142.893C139.3 136.033 114.94 145.553 111.067 147.093Z" fill="white"/>
<path d="M110.693 146.207C110.693 182.513 111.02 218.867 111.767 255.173C111.767 255.407 112.14 255.407 112.14 255.173C111.393 218.867 111.02 182.56 111.067 146.207C111.02 145.973 110.693 145.973 110.693 146.207Z" fill="#180E25"/>
<path d="M139.767 164.08C131.32 193.9 124.04 224.047 117.973 254.427C117.927 254.66 118.253 254.753 118.3 254.52C124.413 224.14 131.693 193.993 140.093 164.173C140.14 163.94 139.813 163.847 139.767 164.08Z" fill="#180E25"/>
<path d="M112.233 255.92C113.867 257.18 116.2 257.087 117.74 255.687C117.927 255.547 117.647 255.267 117.507 255.453C116.06 256.76 113.96 256.807 112.42 255.593C112.233 255.5 112.047 255.827 112.233 255.92Z" fill="#180E25"/>
<path d="M119.187 257.32C117.787 256.2 115.267 260.493 116.76 260.867C117.833 261.147 118.86 258.86 119.187 258.207C119.513 257.46 119.653 256.713 119.887 255.967C120.027 255.127 120.54 254.987 121.473 255.593C121.287 255.78 121.1 256.013 120.867 256.2C120.353 256.667 119.84 257.087 119.28 257.507C119.093 257.647 119.28 257.927 119.467 257.787C120.167 257.273 120.82 256.713 121.427 256.107C121.707 255.827 122.267 255.36 122.127 254.893C121.987 254.193 121.1 254.147 120.587 254.427C119.467 254.987 119.373 256.667 119 257.693C118.86 258.02 117.18 261.473 116.667 259.933C116.433 259.28 118.347 257.087 118.953 257.553C119.14 257.693 119.373 257.46 119.187 257.32Z" fill="white"/>
<path d="M120.493 260.073C120.913 259.373 121.52 258.86 122.313 258.58C122.547 258.487 122.453 258.16 122.22 258.253C121.333 258.533 120.633 259.093 120.167 259.887C120.073 260.073 120.353 260.26 120.493 260.073Z" fill="white"/>
<path d="M121.94 260.82C122.267 260.12 123.013 259.887 123.713 259.7C123.947 259.653 123.853 259.327 123.62 259.373C122.827 259.56 122.033 259.84 121.66 260.633C121.52 260.867 121.847 261.053 121.94 260.82Z" fill="white"/>
<path d="M122.967 261.987C123.573 261.333 124.32 261.007 125.207 261.053C125.44 261.053 125.44 260.727 125.207 260.68C124.273 260.633 123.34 261.007 122.733 261.707C122.593 261.94 122.827 262.173 122.967 261.987Z" fill="white"/>
<path d="M111.207 262.827C115.033 264.973 119.093 266.42 123.2 267.867C123.433 267.96 123.527 267.587 123.293 267.54C119.187 266.14 115.173 264.693 111.393 262.547C111.207 262.407 111.02 262.733 111.207 262.827Z" fill="white"/>
<path d="M202.718 106.382L202.809 106.283L202.776 106.153C202.591 105.414 202.359 104.302 202.127 102.907C201.656 99.8488 201.445 98.3927 202.062 96.9808C202.154 96.7751 202.399 96.229 202.838 95.6903C203.277 95.1513 203.895 94.6367 204.729 94.4652C205.653 94.2896 206.768 94.4729 207.484 95.2311C208.061 95.8491 208.116 96.5818 208.163 98.2404L208.164 98.2422C208.257 100.855 208.304 102.394 208.35 103.981L208.843 104.033C209.192 102.612 209.457 101.764 209.659 101.275C209.753 101.048 209.828 100.911 209.885 100.832C209.909 100.877 209.935 100.938 209.961 101.017C210.037 101.247 210.102 101.585 210.136 101.999C210.204 102.825 210.147 103.915 209.852 104.98L209.852 104.982C209.536 106.157 209.039 106.971 208.628 107.564L208.627 107.566C207.938 108.58 207.438 109.043 205.88 110.49C205.689 110.668 205.482 110.86 205.256 111.07L205.255 111.072C204.649 111.647 204.163 112.116 203.768 112.497C203.26 112.987 202.903 113.331 202.635 113.569C202.397 113.782 202.253 113.888 202.154 113.936C202.075 113.974 202.043 113.969 202.006 113.956L202.006 113.956L201.997 113.953C201.838 113.907 201.666 113.724 201.516 113.32C201.371 112.93 201.273 112.402 201.213 111.794C201.095 110.614 201.125 109.191 201.191 108.043C201.429 107.784 201.676 107.515 201.924 107.246L201.924 107.246C202.192 106.954 202.461 106.662 202.718 106.382ZM209.833 100.753C209.832 100.752 209.831 100.751 209.831 100.751C209.831 100.751 209.832 100.752 209.833 100.753ZM209.949 100.761C209.949 100.761 209.949 100.761 209.948 100.762C209.949 100.761 209.949 100.761 209.949 100.761Z" fill="white" stroke="#180E25" stroke-width="0.5"/>
<path d="M158.299 63.6643L158.299 63.6643C159.071 63.4975 160.005 63.809 160.864 64.2702C161.712 64.7252 162.432 65.2962 162.751 65.5698L162.75 65.57L162.76 65.5773C163.987 66.5317 164.711 67.3877 165.63 69.2251L165.63 69.2257C167.234 72.4104 168.256 75.0823 168.877 76.9561C169.187 77.8929 169.397 78.6302 169.529 79.1322C169.595 79.3833 169.642 79.5754 169.672 79.7043C169.687 79.7688 169.698 79.8174 169.705 79.8496L169.713 79.8856L169.715 79.8943L169.715 79.8946C169.715 79.895 169.715 79.8954 169.715 79.8958C170.038 81.5487 170.424 83.472 170.86 85.6466C172.063 91.6426 173.649 99.5489 175.361 108.965L175.4 109.178L175.616 109.17C177.412 109.1 179.208 109.041 181.005 108.983H181.005C182.801 108.925 184.598 108.866 186.396 108.796L186.396 108.796L201.469 108.238C201.859 108.378 202.572 108.77 203.123 109.532C204.147 110.99 203.64 112.736 203.491 113.227C202.777 113.597 201.85 114.044 200.756 114.573C200.215 114.834 199.634 115.114 199.018 115.415C193.605 118.028 188.853 120.311 182.657 122.686C178.885 124.13 177.52 124.476 176.368 124.735C176.278 124.756 176.188 124.776 176.098 124.795C175.033 125.032 173.998 125.262 171.273 126.279L171.273 126.279L171.267 126.281C170.581 126.556 168.843 127.196 166.558 127.15L166.558 127.15H166.553C165.442 127.15 163.281 127.054 161.533 125.621C160.37 124.636 159.876 123.472 159.601 122.739L159.6 122.737C158.39 119.572 157.564 116.897 157.041 115.013C156.779 114.071 156.593 113.328 156.473 112.82C156.413 112.566 156.369 112.372 156.34 112.241C156.326 112.175 156.315 112.126 156.309 112.093L156.301 112.056L156.299 112.046L156.298 112.044L156.298 112.044L156.298 112.044L156.298 112.043C154.991 105.741 154.387 102.625 154.015 99.372C153.736 96.8605 153.55 94.022 153.503 90.8097L153.503 90.8097L153.503 90.807C153.457 88.943 153.352 82.3982 153.934 76.1774C154.225 73.0652 154.687 70.048 155.408 67.742C155.769 66.5884 156.191 65.6261 156.68 64.9213C157.169 64.2158 157.708 63.7918 158.299 63.6643Z" fill="#DEDC52" stroke="#180E25" stroke-width="0.5"/>
<path d="M203.467 99.4933C203.327 97.6266 203.793 95.8999 204.82 94.3599C204.96 94.1733 204.633 93.9866 204.54 94.1733C203.467 95.7599 202.953 97.5799 203.14 99.4933C203.14 99.7266 203.467 99.7266 203.467 99.4933Z" fill="#180E25"/>
<path d="M205.567 99.5866C205.38 97.8132 205.8 96.1332 206.92 94.7332C207.06 94.5466 206.827 94.3132 206.687 94.4999C205.52 95.9932 205.053 97.7199 205.24 99.5866C205.24 99.7732 205.567 99.7732 205.567 99.5866Z" fill="#180E25"/>
<path d="M207.2 99.26C207.247 97.9066 207.713 96.6466 208.553 95.5733C208.693 95.3866 208.367 95.2 208.273 95.3866C207.387 96.5066 206.92 97.8133 206.873 99.26C206.827 99.4933 207.2 99.4933 207.2 99.26Z" fill="#180E25"/>
<path d="M208.787 104.02C208.973 103.133 209.253 102.293 209.72 101.5C209.813 101.313 209.533 101.127 209.44 101.313C208.973 102.107 208.647 102.993 208.507 103.88C208.367 104.16 208.74 104.253 208.787 104.02Z" fill="#180E25"/>
<path d="M162.29 89.1375L162.29 89.1369C162.22 84.3249 162.15 83.8916 162.037 83.2622L162.033 83.2377C161.914 82.5701 161.751 81.6585 161.497 76.1256M162.29 89.1375L161.747 76.1133M162.29 89.1375C162.523 102.997 162.616 110.64 161.777 121.827C161.499 125.403 161.035 130.32 160.294 136.119C158.857 137.92 156.784 140.216 154.029 142.466L154.028 142.467C152.731 143.532 149.621 145.946 145.026 148.127L145.024 148.128C143.497 148.869 139.598 150.587 134.258 151.655C131.939 152.119 128.086 152.676 123.352 152.444C118.806 152.212 116.975 151.424 116.358 151.116L116.359 151.116L116.352 151.113C113.822 149.938 112.226 148.228 111.302 147.035C110.048 140.252 109.165 134.443 108.514 129.885C107.54 122.788 106.981 116.059 105.872 102.699L105.856 102.506C105.856 102.506 105.856 102.506 105.856 102.506C105.202 94.5663 105.112 92.7292 105.527 89.8692L105.527 89.8686C106.541 82.7708 109.481 77.3668 111.796 73.9295M162.29 89.1375L111.627 73.7333M161.497 76.1256C161.497 76.1253 161.497 76.125 161.497 76.1247L161.747 76.1133M161.497 76.1256C161.497 76.126 161.497 76.1264 161.497 76.1268L161.747 76.1133M161.497 76.1256C161.493 76.0459 161.488 75.9647 161.484 75.882C161.393 74.172 161.268 71.8134 160.388 68.9075M161.747 76.1133C161.742 76.0327 161.738 75.9504 161.734 75.8666C161.643 74.1543 161.516 71.7695 160.627 68.8333M160.388 68.9075C160.388 68.9081 160.388 68.9088 160.389 68.9095L160.627 68.8333M160.388 68.9075C159.673 66.6754 158.787 64.8744 158.103 63.672M160.388 68.9075C160.388 68.9069 160.388 68.9063 160.387 68.9058L160.627 68.8333M160.627 68.8333L158.103 63.672M158.103 63.672C158.152 63.6713 158.201 63.6706 158.25 63.6699L158.247 63.4199L158.03 63.5449C158.054 63.5864 158.078 63.6288 158.103 63.672ZM158.103 63.672C144.358 63.8732 129.604 66.2539 114.946 72.5162M158.103 63.672L114.847 72.2866M114.946 72.5162C114.946 72.5161 114.946 72.516 114.946 72.5159L114.847 72.2866M114.946 72.5162C114.945 72.5163 114.945 72.5164 114.945 72.5165L114.847 72.2866M114.946 72.5162C113.892 72.9741 112.844 73.4301 111.796 73.9295M114.847 72.2866C113.773 72.7533 112.7 73.2199 111.627 73.7333M111.796 73.9295C111.809 73.9107 111.821 73.8919 111.834 73.8732L111.627 73.7333M111.796 73.9295C111.775 73.9393 111.755 73.949 111.735 73.9588L111.627 73.7333" fill="#DEDC52" stroke="#180E25" stroke-width="0.5"/>
<path d="M161.327 73.2666C163.193 93.1466 163.007 113.167 160.86 133C160.813 133.233 161.187 133.233 161.233 133C163.38 113.167 163.567 93.1466 161.7 73.2666C161.653 73.0332 161.327 73.0332 161.327 73.2666Z" fill="#180E25"/>
<path d="M105 92.3066C105.56 110.74 107.52 129.08 110.927 147.187C110.973 147.42 111.3 147.327 111.253 147.093C107.893 129.033 105.887 110.693 105.327 92.3066C105.327 92.0733 104.953 92.0733 105 92.3066Z" fill="#180E25"/>
<path d="M89.9604 78.9561L89.9607 78.958C90.1392 79.9395 90.1873 80.7461 90.1899 81.3356C89.4728 82.9837 87.7694 84.0208 86.0739 83.9373C84.5752 83.763 83.323 82.7511 82.7754 81.3003C82.9019 81.0007 83.0193 80.7018 83.1354 80.4063L83.136 80.4047C83.2646 80.0774 83.3915 79.7543 83.5298 79.4317L83.5931 79.284L83.485 79.1651C83.4554 79.1326 83.4255 79.0997 83.3953 79.0665C82.9472 78.5741 82.4266 78.0021 81.8653 77.268L81.864 77.2664C81.219 76.4371 80.3905 75.2404 79.654 73.6293L79.6542 73.6292L79.6503 73.6214C79.0057 72.3323 78.5918 71.1362 78.3159 70.0326L78.288 69.9211L78.1851 69.8696C77.5483 69.5512 76.6369 69.0045 75.7255 68.1387L75.725 68.1382C74.9683 67.4235 74.4452 66.6696 74.1206 66.0951C74.6223 65.3814 75.3325 64.4986 76.254 63.4454C77.2073 62.3759 77.7892 61.8308 78.1543 61.5542C78.3361 61.4164 78.4562 61.3515 78.5346 61.3204C78.6065 61.2918 78.6472 61.2899 78.68 61.2899H78.6878L78.6956 61.2894C78.8412 61.2803 78.969 61.302 79.1122 61.3736C79.2623 61.4487 79.4383 61.5832 79.6688 61.8164C80.1328 62.2861 80.763 63.0984 81.7934 64.4567C83.1453 66.2748 83.7967 67.1589 84.3542 67.9486L84.3719 67.9749C85.717 69.9693 86.8708 71.6801 88.1172 74.1267L88.1181 74.1283C89.4165 76.6324 89.7792 77.9145 89.9604 78.9561Z" fill="white" stroke="#180E25" stroke-width="0.5"/>
<path d="M93.2774 100.301L93.4398 100.95L93.7429 100.353C98.2201 91.5387 102.087 85.017 104.318 81.8101C106.358 78.9275 108.143 77.1485 108.823 76.4699C108.854 76.4395 108.882 76.4113 108.908 76.3853C109.93 75.4065 110.872 74.6238 111.592 74.0734C116.191 79.3756 117.553 84.2456 118.101 86.9415C119.755 95.675 116.2 103.731 112.526 112.056L112.472 112.177C112.472 112.177 112.472 112.178 112.472 112.178C111.355 114.644 110.285 116.69 109.543 117.989L109.542 117.991L109.502 118.061C108.06 120.62 106.117 124.068 102.762 127.745C99.6717 131.116 97.6214 133.338 94.2083 134.157L94.2049 134.158C91.8769 134.751 90.0523 134.432 89.5521 134.341C85.5885 133.592 83.2803 130.757 82.3697 129.638C82.3387 129.6 82.3094 129.564 82.2817 129.53C81.784 128.896 80.4497 127.059 79.4344 123.46C78.3262 119.304 78.4631 115.885 78.7427 112.018L78.7427 112.018C79.4993 101.513 80.851 92.836 81.6216 87.889C81.658 87.6553 81.6931 87.4299 81.7268 87.213C81.869 86.3599 82.0024 85.5506 82.1271 84.7943C82.3858 83.2255 82.607 81.8842 82.791 80.8502C83.7825 81.2503 85.1948 81.6931 86.9213 81.8226L86.9233 81.8227C88.2199 81.9092 89.3188 81.7989 90.2144 81.6722C90.5902 85.8506 91.1921 90.298 92.1079 95.0143L92.1084 95.0168C92.4818 96.837 92.856 98.6149 93.2774 100.301Z" fill="#DEDC52" stroke="#180E25" stroke-width="0.5"/>
<path d="M82.3667 81.1533C80.9667 88.6666 79.8 96.2266 79.0067 103.88C78.26 110.88 77.0933 118.58 79.5667 125.393C81.3867 130.34 85.6333 134.773 91.1867 134.96C97.2067 135.147 101.687 129.92 105 125.533C109.573 119.56 113.027 112.84 115.313 105.653C115.36 105.42 115.033 105.327 114.987 105.56C112.56 113.167 108.78 120.307 103.787 126.513C101.36 129.547 98.5133 132.72 94.7333 134.027C90.58 135.427 86.1467 133.887 83.2067 130.76C77.2333 124.46 78.26 114.847 79.0067 106.96C79.8 98.3266 81.06 89.74 82.6467 81.2C82.74 81.0133 82.4133 80.92 82.3667 81.1533Z" fill="#180E25"/>
<path d="M86.1933 79.3334C84.42 77.98 83.44 75.9734 83.3934 73.7333C83.3934 73.5 83.02 73.5 83.02 73.7333C83.0667 76.0667 84.0934 78.1667 85.9133 79.5667C86.1 79.7067 86.38 79.4734 86.1933 79.3334Z" fill="#180E25"/>
<path d="M82.8334 72.4267C82.32 71.9133 80.7334 70.0467 81.76 69.3933C81.9467 69.2533 81.76 68.9734 81.5734 69.1134C80.22 70 81.8534 71.96 82.5534 72.7067C82.74 72.8467 82.9734 72.6133 82.8334 72.4267Z" fill="#180E25"/>
<path d="M77.6533 61.74C78.26 63.8867 79.94 65.3333 81.6667 66.64C81.8533 66.78 82.04 66.4533 81.8533 66.36C80.1733 65.1467 78.5867 63.7467 78.0267 61.6933C77.9333 61.46 77.6067 61.5533 77.6533 61.74Z" fill="#180E25"/>
<path d="M75.9733 63.3266C76.4866 64.2133 77.0466 65.0533 77.7 65.8466C77.98 66.22 78.3066 66.5933 78.6333 66.8733C78.96 67.1533 79.38 67.2933 79.7533 67.5266C79.94 67.6666 80.1266 67.34 79.94 67.2466C79.6133 67.0133 79.1933 66.8733 78.8666 66.64C78.4933 66.3599 78.2133 65.9866 77.9333 65.6133C77.3266 64.8199 76.7666 64.0266 76.2533 63.1399C76.16 62.9533 75.88 63.1399 75.9733 63.3266Z" fill="#180E25"/>
<path d="M74.76 64.5867C75.6467 66.22 76.6733 67.9 78.4 68.74C78.5867 68.8333 78.7733 68.5533 78.5867 68.46C76.9067 67.6667 75.9267 66.0333 75.0867 64.4467C74.9933 64.2133 74.6667 64.4 74.76 64.5867Z" fill="#180E25"/>
<path d="M145.973 61.3666C145.88 57.8666 144.947 56.56 144.013 56.0466C142.987 55.4866 142.287 56.0466 137.107 57.0733C136.407 57.2133 134.867 57.4466 131.74 57.8666C129.967 58.1 129.033 58.24 127.913 57.82C127.493 57.68 126 57.12 125.3 55.6733C124.32 53.6666 125.673 51.4266 125.953 50.96C127.493 48.3933 130.34 47.6933 131.507 47.4133C134.68 46.62 137.387 47.5066 138.553 47.9733C139.44 45.5466 140.467 44.8933 141.213 44.7066C142.1 44.52 142.333 45.08 143.967 45.22C145.273 45.3133 146.3 45.0333 147.84 44.66C149.147 44.3333 149.473 44.1 150.127 43.9133C153.487 42.98 157.033 45.5 157.64 45.92C160.16 47.6933 161.327 50.0733 161.887 51.52C162.12 52.22 162.913 54.6466 162.4 57.7266C161.793 61.04 160.02 63.14 159.04 64.26C157.593 65.8933 155.167 68.74 151.107 69.1133C147.093 69.4866 144.107 67.2 143.313 66.5466C144.2 64.82 145.087 63.0933 145.973 61.3666Z" fill="#180E25"/>
<path d="M131.43 61.1472L131.43 61.1472L131.43 61.1419C131.473 59.8973 131.717 58.8534 131.937 58.1237C133.713 57.6956 134.955 57.0501 135.749 56.5365L135.749 56.5365L135.752 56.5346C136.204 56.2332 136.518 55.9812 136.788 55.7647C136.859 55.708 136.926 55.6537 136.993 55.6015C137.307 55.3543 137.603 55.146 138.088 54.9249C138.111 54.9165 138.135 54.9075 138.162 54.8978C138.737 54.6857 140.112 54.1782 141.77 54.5182L141.772 54.5186C143.83 54.9214 145.537 56.4465 146.254 58.2842L146.254 58.2852C146.999 60.1684 146.456 61.8784 145.855 63.774C145.846 63.8013 145.838 63.8286 145.829 63.856C145.373 65.2243 144.827 66.0399 144.561 66.3957C143.972 67.1654 143.385 67.6612 142.937 67.9752L142.756 68.1015L142.859 68.2964C143.09 68.7357 143.31 69.1872 143.532 69.6428L143.533 69.6444C143.731 70.0516 143.931 70.4621 144.14 70.865C143.442 71.8066 142.249 73.0263 140.444 73.5864C140.415 73.5942 140.384 73.6025 140.352 73.6112C139.991 73.7083 139.459 73.8516 138.925 73.8923C138.328 73.9378 137.817 73.8475 137.527 73.5205C137.371 73.3458 137.241 73.086 137.196 72.8121C137.152 72.5421 137.193 72.2786 137.351 72.0664C137.645 71.7024 138.261 71.5302 138.868 71.8132L139.323 72.0257L139.218 71.5342C139.147 71.2034 139.064 70.8733 138.983 70.548L138.982 70.546C138.901 70.2186 138.82 69.8961 138.751 69.5742L138.711 69.3882L138.521 69.3771C137.756 69.3321 136.354 69.1063 134.906 68.2013L134.906 68.2013L134.902 68.1989C134.459 67.9334 132.694 66.7121 131.835 64.4089C131.385 63.1004 131.384 61.9715 131.43 61.1472Z" fill="white" stroke="#180E25" stroke-width="0.5"/>
<path d="M132.487 57.3533C130.947 57.7267 129.173 58.1933 127.633 57.6333C125.16 56.7467 124.647 54.04 125.673 51.94C127.12 48.9067 130.993 47.74 134.12 47.6933C140.187 47.6 147.093 52.08 146.767 58.7067C146.767 58.94 147.093 58.94 147.14 58.7067C147.607 50.1667 137.013 45.5 129.873 48.1133C127.12 49.14 124.413 51.52 124.927 54.74C125.533 58.66 129.687 58.4267 132.673 57.7267C132.813 57.6333 132.72 57.3067 132.487 57.3533Z" fill="#180E25"/>
<path d="M133 57.6333C135.1 57.2133 136.407 55.4866 138.367 54.7399C141.82 53.4333 145.367 55.2533 146.533 58.7066C146.627 58.9399 146.953 58.8466 146.86 58.6133C146.067 56.2799 144.293 54.4133 141.773 53.9933C137.993 53.3399 136.267 56.6066 132.907 57.2599C132.673 57.3533 132.767 57.6799 133 57.6333Z" fill="#180E25"/>
<path d="M138.74 48.0667C138.973 47.4133 139.44 46.0133 140.093 45.64C140.933 45.1267 142.613 45.5 143.407 45.7333C143.92 45.8733 144.247 46.1067 144.807 46.1067C146.44 46.1067 147.887 44.8 149.473 44.4733C154.56 43.4467 159.74 46.3867 161.56 51.1933C165.433 61.18 154.28 72.4733 144.48 66.92C144.293 66.8267 144.107 67.1067 144.293 67.2C154.56 73.0333 166.32 60.8533 161.653 50.4933C159.647 46.06 154.933 43.4 150.08 44.0533C148.867 44.1933 147.933 44.66 146.86 45.0333C145.6 45.4533 144.387 45.5933 143.173 45.1267C142.753 44.9867 142.613 44.7067 142.147 44.6133C140.093 44.24 139.02 46.48 138.46 48.02C138.32 48.16 138.693 48.2533 138.74 48.0667Z" fill="#180E25"/>
<path d="M138.367 69.6733C138.507 70.3266 138.693 70.98 138.833 71.6333C138.88 71.8666 139.207 71.7733 139.16 71.54C139.02 70.8866 138.833 70.2333 138.693 69.58C138.647 69.3466 138.273 69.44 138.367 69.6733Z" fill="#180E25"/>
<path d="M137.247 58.1C136.22 60.4334 135.287 63.0933 137.06 65.2867C137.2 65.4733 137.433 65.1933 137.293 65.0533C135.613 63 136.593 60.4334 137.527 58.2867C137.667 58.1 137.34 57.9134 137.247 58.1Z" fill="#180E25"/>
<path d="M135.007 60.1533C135.316 60.1533 135.567 59.9026 135.567 59.5933C135.567 59.284 135.316 59.0333 135.007 59.0333C134.697 59.0333 134.447 59.284 134.447 59.5933C134.447 59.9026 134.697 60.1533 135.007 60.1533Z" fill="#180E25"/>
<path d="M140.28 60.1533C140.589 60.1533 140.84 59.9026 140.84 59.5933C140.84 59.284 140.589 59.0333 140.28 59.0333C139.971 59.0333 139.72 59.284 139.72 59.5933C139.72 59.9026 139.971 60.1533 140.28 60.1533Z" fill="#180E25"/>
<path d="M253.4 141.12L235.527 140.467C232.587 140.373 230.673 136.313 231.933 132.813L234.687 125.16C235.387 123.247 236.833 122.033 238.42 122.08L251.487 122.313C253.213 122.36 254.753 123.807 255.313 125.953L257.367 134.027C258.3 137.573 256.247 141.26 253.4 141.12Z" fill="white" stroke="#180E25" stroke-width="0.75" stroke-miterlimit="10"/>
<path d="M258.767 65.38C260.54 67.3867 262.36 69.6267 264.133 72.0533C271.087 81.7133 274.867 91.3733 277.06 99.2133C271.04 99.0733 265.02 98.9333 259.047 98.7467" fill="#DEDC52"/>
<path d="M266.28 87.1267C267.447 99.2601 266.933 109.62 266.14 117.32C265.86 120.073 264.553 122.64 262.5 124.46C259.14 127.493 253.307 131.367 245.28 131.553C236.133 131.787 229.553 127.167 225.96 123.713C223.953 121.8 222.74 119.187 222.507 116.387C221.993 108.78 221.993 98.6534 224.233 87.0801C228.34 65.9401 240.193 37.9867 249.9 38.9667C261.52 40.2734 265.86 82.4601 266.28 87.1267Z" fill="white" stroke="#180E25" stroke-width="0.75" stroke-miterlimit="10"/>
<path d="M254.147 98.7467C258.606 98.7467 262.22 92.3324 262.22 84.42C262.22 76.5076 258.606 70.0934 254.147 70.0934C249.688 70.0934 246.073 76.5076 246.073 84.42C246.073 92.3324 249.688 98.7467 254.147 98.7467Z" fill="white" stroke="#180E25" stroke-width="0.75" stroke-miterlimit="10"/>
<path d="M231.887 67.5267C230.113 69.5334 228.293 71.7734 226.52 74.2001C219.567 83.8601 215.787 93.5201 213.593 101.36C219.613 101.22 225.633 101.08 231.607 100.893" fill="#DEDC52"/>
<path opacity="0.71" d="M190.12 127.4C189.84 128.38 183.307 176.307 183.307 176.307L237.02 167.16L244.58 127.353L190.12 127.4Z" fill="white" stroke="#180E25" stroke-width="0.75" stroke-miterlimit="10"/>
<g opacity="0.38">
<g opacity="0.38">
<path opacity="0.38" d="M194.087 133.28C206.78 133.187 219.52 133.047 232.213 132.953C233.1 132.953 233.1 131.553 232.213 131.553C219.52 131.647 206.78 131.787 194.087 131.88C193.2 131.88 193.2 133.28 194.087 133.28Z" fill="#180E25"/>
</g>
</g>
<g opacity="0.38">
<g opacity="0.38">
<path opacity="0.38" d="M192.5 139.86C204.26 139.533 215.973 139.207 227.733 138.927C228.62 138.88 228.62 137.48 227.733 137.527C215.973 137.853 204.26 138.18 192.5 138.46C191.613 138.46 191.613 139.86 192.5 139.86Z" fill="#180E25"/>
</g>
</g>
<g opacity="0.38">
<g opacity="0.38">
<path opacity="0.38" d="M191.94 146.207C203.14 146.02 214.387 145.693 225.587 145.18C226.473 145.133 226.473 143.733 225.587 143.78C214.387 144.247 203.187 144.62 191.94 144.807C191.053 144.807 191.053 146.207 191.94 146.207Z" fill="#180E25"/>
</g>
</g>
<g opacity="0.38">
<g opacity="0.38">
<path opacity="0.38" d="M190.773 154.793C202.3 154.467 213.78 153.813 225.26 152.927C226.147 152.833 226.147 151.433 225.26 151.527C213.78 152.46 202.253 153.067 190.773 153.393C189.887 153.393 189.887 154.793 190.773 154.793Z" fill="#180E25"/>
</g>
</g>
<g opacity="0.38">
<g opacity="0.38">
<path opacity="0.38" d="M189.373 163.24C202.16 162.213 214.9 161 227.64 159.6C228.527 159.507 228.527 158.107 227.64 158.2C214.9 159.6 202.16 160.813 189.373 161.84C188.487 161.933 188.487 163.333 189.373 163.24Z" fill="#180E25"/>
</g>
</g>
</svg>
